<svg width="698" height="566" viewBox="0 0 698 566" fill="none" xmlns="http://www.w3.org/2000/svg">
<path d="M134.129 467.437C134.093 467.434 134.056 467.432 134.019 467.431C133.453 467.42 132.927 467.729 132.661 468.232L132.657 468.239C132.411 468.704 132.424 469.263 132.692 469.713L136.494 477.753L136.495 477.754C137.717 480.332 140.3 481.994 143.157 481.997C143.157 481.997 143.158 481.997 143.158 481.997L390.586 482.578L390.587 482.578C394.231 482.584 397.807 481.552 400.891 479.589L669.348 308.958L669.349 308.957C672.114 307.198 673.407 303.823 672.54 300.658L672.54 300.658L670.954 294.87C670.829 294.414 670.497 294.045 670.058 293.873C669.619 293.702 669.124 293.748 668.723 293.998C622.641 322.679 576.559 351.36 530.477 380.04L530.435 380.066C484.459 408.68 438.482 437.295 392.507 465.91L134.129 467.437Z" fill="#7148E5" stroke="#7F57F4" stroke-width="3" stroke-linecap="round" stroke-linejoin="round"/>
<path d="M418.833 315.146C419.515 314.773 419.803 313.942 419.497 313.229L319.479 80.3166C319.167 79.5896 318.344 79.2332 317.6 79.5025L4.32036 192.801C3.92239 192.945 3.60291 193.251 3.44065 193.642C3.27838 194.034 3.28844 194.476 3.46832 194.858L132.641 469.617C132.817 469.99 133.138 470.274 133.529 470.401C133.92 470.529 134.347 470.489 134.709 470.291L418.833 315.146Z" fill="url(#paint0_linear_7498_1223)" stroke="#967DDE" stroke-width="3" stroke-linecap="round" stroke-linejoin="round"/>
<path d="M19.3582 200.771L314.171 92.9649L405.01 305.658L137.215 450.368L19.3582 200.771Z" fill="url(#paint1_linear_7498_1223)"/>
<path d="M19.3582 200.771L314.171 92.9649L405.01 305.658L137.215 450.368L19.3582 200.771Z" fill="url(#paint2_linear_7498_1223)"/>
<path d="M670.303 296.546C670.889 296.18 671.152 295.462 670.94 294.805C670.729 294.149 670.097 293.723 669.41 293.774L418.009 312.332C417.796 312.347 417.589 312.409 417.401 312.511L133.271 467.615C132.668 467.944 132.363 468.64 132.53 469.306C132.698 469.972 133.296 470.437 133.981 470.435L387.471 469.791L387.471 469.791C391.038 469.781 394.528 468.775 397.558 466.883L670.303 296.546Z" fill="url(#paint3_linear_7498_1223)" stroke="#7F57F4" stroke-width="3" stroke-linecap="round" stroke-linejoin="round"/>
<path opacity="0.8" d="M473.227 414.618L358.621 418.429L467.063 355.226L582.513 346.443L473.227 414.618Z" fill="url(#paint4_linear_7498_1223)" fill-opacity="0.7"/>
<defs>
<linearGradient id="paint0_linear_7498_1223" x1="172.786" y1="125.343" x2="322.229" y2="400.693" gradientUnits="userSpaceOnUse">
<stop stop-color="#C4AFFF"/>
<stop offset="0.619797" stop-color="#A180FF"/>
</linearGradient>
<linearGradient id="paint1_linear_7498_1223" x1="324.612" y1="369.179" x2="-2.65579" y2="155.298" gradientUnits="userSpaceOnUse">
<stop stop-color="#6CE5FF" stop-opacity="0"/>
<stop offset="0.592264" stop-color="white" stop-opacity="0.5"/>
<stop offset="1" stop-color="#DAFFE4" stop-opacity="0"/>
</linearGradient>
<linearGradient id="paint2_linear_7498_1223" x1="324.612" y1="369.179" x2="-2.65579" y2="155.298" gradientUnits="userSpaceOnUse">
<stop stop-color="#6CE5FF" stop-opacity="0"/>
<stop offset="0.592264" stop-color="white" stop-opacity="0.5"/>
<stop offset="1" stop-color="#DAFFE4" stop-opacity="0"/>
</linearGradient>
<linearGradient id="paint3_linear_7498_1223" x1="276.541" y1="366.789" x2="393.259" y2="488.379" gradientUnits="userSpaceOnUse">
<stop stop-color="#6934FF"/>
<stop offset="1" stop-color="#9F7DFF"/>
</linearGradient>
<linearGradient id="paint4_linear_7498_1223" x1="464.498" y1="416.697" x2="428.71" y2="357.651" gradientUnits="userSpaceOnUse">
<stop offset="0.190469" stop-color="#A788FF"/>
<stop offset="1" stop-color="#F1AAD5"/>
</linearGradient>
</defs>
</svg>
