<svg width="40" height="20" viewBox="0 0 40 20" fill="none" xmlns="http://www.w3.org/2000/svg">
<path d="M22.9491 5.16064H17.1719V14.3771H22.9491V5.16064Z" fill="#FF5F00"/>
<path d="M17.7681 9.7699C17.7674 8.88243 17.9733 8.00643 18.3704 7.2082C18.7675 6.40996 19.3452 5.71041 20.06 5.16247C19.1747 4.48295 18.1116 4.0604 16.9922 3.9431C15.8727 3.82581 14.742 4.01851 13.7294 4.49918C12.7167 4.97985 11.8629 5.7291 11.2656 6.66129C10.6683 7.59348 10.3516 8.671 10.3516 9.77071C10.3516 10.8704 10.6683 11.9479 11.2656 12.8801C11.8629 13.8123 12.7167 14.5616 13.7294 15.0422C14.742 15.5229 15.8727 15.7156 16.9922 15.5983C18.1116 15.481 19.1747 15.0585 20.06 14.379C19.345 13.8309 18.7671 13.131 18.37 12.3325C17.973 11.534 17.7671 10.6576 17.7681 9.7699Z" fill="#EB001B"/>
<path d="M29.7718 9.76977C29.7718 10.8696 29.4549 11.9472 28.8575 12.8794C28.2601 13.8116 27.4062 14.5608 26.3934 15.0414C25.3806 15.522 24.2499 15.7146 23.1303 15.5972C22.0108 15.4797 20.9477 15.0569 20.0625 14.3772C20.777 13.8288 21.3546 13.129 21.7517 12.3307C22.1489 11.5325 22.3553 10.6565 22.3553 9.76895C22.3553 8.8814 22.1489 8.00544 21.7517 7.20716C21.3546 6.40888 20.777 5.70913 20.0625 5.16071C20.9477 4.48097 22.0108 4.05821 23.1303 3.94075C24.2499 3.82329 25.3806 4.01587 26.3934 4.49647C27.4062 4.97707 28.2601 5.72631 28.8575 6.65853C29.4549 7.59075 29.7718 8.66835 29.7718 9.76814V9.76977Z" fill="#F79E1B"/>
<rect x="0.5" y="0.5" width="39" height="19" stroke="black"/>
</svg>
