<svg width="226" height="220" viewBox="0 0 226 220" fill="none" xmlns="http://www.w3.org/2000/svg">
<path d="M68.2609 55.702C67.457 53.9799 66.0715 52.5745 64.1093 51.4891C63.7929 51.3156 63.4711 51.1558 63.143 51.0056C63.0827 50.9769 63.0272 50.9514 62.9669 50.9227C62.6494 50.7828 62.3304 50.6557 62.0013 50.5391C61.9378 50.5153 61.8752 50.4954 61.8118 50.4716C61.4747 50.3567 61.1304 50.2476 60.7777 50.1569C60.7649 50.1555 60.7512 50.1501 60.7424 50.1478C60.3985 50.0594 60.0492 49.9846 59.6936 49.9196C59.6287 49.9085 59.5679 49.8966 59.503 49.8856C59.1523 49.8236 58.7922 49.7762 58.4307 49.7416C58.3587 49.7362 58.2859 49.7269 58.2139 49.7216C57.8405 49.6895 57.4639 49.6622 57.0788 49.6535C57.0541 49.6547 57.0285 49.6518 56.9998 49.6539C56.6275 49.6465 56.2498 49.6529 55.8659 49.6689C55.7996 49.6706 55.7333 49.6724 55.6679 49.6781C55.2809 49.699 54.8876 49.7295 54.4889 49.7737C54.453 49.7814 54.4186 49.7763 54.3828 49.784C54.3222 49.7929 54.2617 49.8017 54.2051 49.8098C53.9739 49.8387 53.7435 49.8716 53.5092 49.9054C53.4088 49.9228 53.3116 49.9354 53.2112 49.9529C52.8814 50.0072 52.5524 50.0656 52.218 50.1375C52.0746 50.1684 51.9313 50.1992 51.788 50.2301C51.7283 50.2429 51.6655 50.2606 51.6058 50.2735C51.3789 50.3223 51.1585 50.3823 50.9333 50.4391C50.8227 50.467 50.7161 50.4941 50.6063 50.5261C50.3311 50.602 50.0567 50.6819 49.7872 50.7649C49.7434 50.7743 49.7044 50.7869 49.6615 50.8003L49.6416 50.8046C49.3809 50.8899 49.1202 50.9751 48.8651 51.0675C48.8413 51.0727 48.8142 51.0826 48.7912 51.0918C48.5083 51.1901 48.2311 51.2956 47.9588 51.4042L47.9428 51.4077C47.7245 51.4963 47.507 51.589 47.2944 51.6847C47.2563 51.7012 47.2182 51.7178 47.1801 51.7343C46.9254 51.8475 46.6715 51.9646 46.4225 52.0848L46.4105 52.0874C46.3472 52.1219 46.2877 52.1555 46.2235 52.186C46.0356 52.2806 45.8508 52.3703 45.6678 52.4681C45.5782 52.5165 45.4855 52.5698 45.396 52.6182C45.2581 52.6937 45.1203 52.7692 44.9824 52.8447C44.9673 52.8521 44.9531 52.8635 44.9381 52.8709C44.8161 52.9429 44.6942 53.015 44.5731 53.0911C44.4512 53.1631 44.3292 53.2352 44.2081 53.3112C44.087 53.3873 43.9708 53.4665 43.8537 53.5417C43.7477 53.6103 43.6416 53.6789 43.5396 53.7467C43.5245 53.7541 43.5143 53.7647 43.5001 53.7761C43.2494 53.9466 43.0004 54.1252 42.7563 54.3069C42.727 54.3257 42.7026 54.3476 42.6782 54.3695C42.4593 54.5333 42.2453 54.7001 42.0322 54.871C42.018 54.8823 41.9998 54.8946 41.9824 54.9108C41.9438 54.9441 41.9051 54.9774 41.8665 55.0107C41.6329 55.2027 41.4081 55.3968 41.1811 55.5998C41.1078 55.6656 41.0305 55.7322 40.958 55.802C40.69 56.0471 40.4238 56.3002 40.1632 56.5603C40.1388 56.5823 40.1192 56.6073 40.0947 56.6292C40.0601 56.6617 40.0342 56.6964 39.9996 56.7289C39.7839 56.9461 39.5771 57.1655 39.379 57.3873C39.3114 57.4601 39.2447 57.537 39.181 57.609C38.9799 57.8356 38.7867 58.0604 38.6023 58.2876C38.5725 58.3231 38.5395 58.3635 38.5097 58.3991C38.2995 58.661 38.1061 58.9234 37.9166 59.1849C37.8649 59.2544 37.818 59.3269 37.7703 59.3955C37.6272 59.6013 37.4889 59.8102 37.3554 60.0222C37.3273 60.0657 37.2952 60.1101 37.2679 60.1576C37.2492 60.1866 37.2344 60.2148 37.2197 60.243C37.1152 60.4154 37.0186 60.5862 36.9221 60.7569C36.8863 60.8229 36.8466 60.8898 36.8099 60.9518C36.6816 61.1877 36.5621 61.4259 36.4474 61.6671C36.4443 61.672 36.442 61.6808 36.4389 61.6856C36.4281 61.7129 36.4173 61.7403 36.4057 61.7636C36.2981 61.9992 36.1985 62.233 36.1037 62.47C36.0714 62.552 36.0422 62.6291 36.0098 62.711C35.9329 62.915 35.8609 63.1221 35.7968 63.3275C35.7747 63.3989 35.7517 63.4664 35.7296 63.5378C35.6497 63.8049 35.5745 64.0751 35.5162 64.3459C35.5066 64.398 35.4961 64.4461 35.4865 64.4981C35.4395 64.7248 35.3965 64.9507 35.3614 65.1748C35.3532 65.2141 35.345 65.2534 35.3408 65.2918C35.3343 65.339 35.3317 65.3853 35.3252 65.4325C35.2984 65.6174 35.2795 65.8006 35.2615 65.9878C35.2539 66.0685 35.2471 66.1533 35.2395 66.2341C35.221 66.4963 35.2073 66.7617 35.2064 67.0284L52.2571 103.533C52.258 103.266 52.2717 103 52.2902 102.738C52.2978 102.657 52.3046 102.573 52.3122 102.492C52.3302 102.305 52.3491 102.122 52.3759 101.937C52.3866 101.851 52.4005 101.761 52.4152 101.674C52.4494 101.446 52.4924 101.22 52.5403 100.997C52.5499 100.945 52.5604 100.897 52.57 100.845C52.6323 100.574 52.7035 100.304 52.7834 100.037C52.8055 99.9657 52.8285 99.8982 52.8506 99.8268C52.9147 99.6214 52.9867 99.4143 53.0636 99.2103C53.092 99.1292 53.1243 99.0473 53.1575 98.9693C53.2523 98.7323 53.3519 98.4985 53.4595 98.2629C53.4734 98.2307 53.4873 98.1986 53.5012 98.1664C53.6119 97.926 53.7354 97.687 53.8637 97.4511C53.8995 97.3851 53.9393 97.3182 53.9759 97.2562C54.0724 97.0855 54.169 96.9147 54.2735 96.7423C54.3163 96.6706 54.3672 96.5971 54.4101 96.5254C54.5444 96.3174 54.6827 96.1085 54.825 95.8988C54.8727 95.8302 54.9235 95.7568 54.9713 95.6882C55.1607 95.4267 55.3581 95.1634 55.5644 94.9024C55.5933 94.8629 55.6271 94.8264 55.657 94.7908C55.8413 94.5637 56.0345 94.3388 56.2317 94.1131C56.2985 94.0363 56.3661 93.9634 56.4337 93.8905C56.6326 93.6728 56.8394 93.4533 57.0542 93.2321C57.1085 93.1746 57.1596 93.122 57.2139 93.0645C57.4745 92.8043 57.7416 92.5552 58.0087 92.3061C58.082 92.2403 58.1584 92.1697 58.2317 92.104C58.4557 91.9058 58.6836 91.7068 58.918 91.5189C58.9749 91.4733 59.0269 91.4246 59.0837 91.3791C59.2969 91.2082 59.5109 91.0414 59.7257 90.8785C59.755 90.8597 59.7794 90.8378 59.8079 90.815C60.052 90.6333 60.3018 90.4587 60.5516 90.2842C60.6679 90.205 60.789 90.1289 60.9052 90.0498C61.0215 89.9706 61.1426 89.8946 61.2597 89.8194C61.3807 89.7433 61.5027 89.6712 61.6246 89.5992C61.7466 89.5271 61.8677 89.4511 61.9896 89.379C62.1417 89.2921 62.2906 89.2101 62.4436 89.1272C62.5331 89.0787 62.6258 89.0255 62.7153 88.977C62.8984 88.8793 63.0863 88.7847 63.2711 88.695C63.3353 88.6645 63.3947 88.6308 63.459 88.6004C63.712 88.4792 63.969 88.3573 64.2277 88.2433C64.2657 88.2268 64.3038 88.2102 64.3419 88.1937C64.5625 88.0962 64.784 88.0027 65.0063 87.9132C65.2827 87.8037 65.5599 87.6983 65.8388 87.6007C65.8627 87.5956 65.8857 87.5865 65.9127 87.5765C66.1686 87.4881 66.4284 87.3988 66.69 87.3175C66.7369 87.3033 66.7878 87.2881 66.8387 87.273C67.1082 87.19 67.3826 87.1101 67.6579 87.0342C67.7645 87.0071 67.8751 86.9791 67.9848 86.9472C68.206 86.8912 68.4313 86.8344 68.6573 86.7816C68.8603 86.7379 69.0616 86.6862 69.2695 86.6456C69.6039 86.5737 69.9369 86.5145 70.2627 86.461C70.3631 86.4436 70.4644 86.4301 70.5608 86.4135C70.7951 86.3797 71.0254 86.3468 71.2566 86.3179C71.3539 86.3053 71.4471 86.2935 71.5452 86.2849C71.9439 86.2407 72.3372 86.2102 72.7243 86.1894C72.7906 86.1876 72.8568 86.1858 72.9222 86.1801C73.3062 86.1641 73.6838 86.1578 74.0561 86.1651C74.0809 86.1639 74.1065 86.1668 74.1352 86.1647C74.5203 86.1735 74.896 86.1967 75.2703 86.2328C75.3423 86.2381 75.4142 86.2435 75.487 86.2528C75.8494 86.2914 76.2055 86.3397 76.5594 86.3968C76.6242 86.4079 76.6851 86.4198 76.75 86.4308C77.1055 86.4959 77.4549 86.5706 77.7988 86.659C77.8116 86.6605 77.8252 86.6658 77.838 86.6673C78.1868 86.7588 78.531 86.868 78.8721 86.982C78.9356 87.0058 78.9982 87.0257 79.0616 87.0495C79.3868 87.1669 79.7097 87.2932 80.0272 87.4331C80.0867 87.4578 80.147 87.4865 80.2034 87.516C80.5314 87.6661 80.8532 87.826 81.1696 87.9994C83.1327 89.0889 84.5174 90.4903 85.3213 92.2124L68.2706 55.7083L68.2609 55.702Z" fill="url(#paint0_linear_7498_1234)"/>
<path d="M35.2035 67.0236L52.2542 103.528C52.252 103.653 52.2547 103.782 52.2605 103.905L35.2098 67.4013C35.208 67.2768 35.2053 67.1482 35.2035 67.0236Z" fill="url(#paint1_linear_7498_1234)"/>
<path d="M35.2067 67.4014L52.2573 103.906C52.2706 104.432 52.3251 104.936 52.4138 105.426L35.3631 68.9214C35.2745 68.4323 35.22 67.9275 35.2067 67.4014Z" fill="url(#paint2_linear_7498_1234)"/>
<path d="M35.3695 68.9255L52.4202 105.43C52.4982 105.85 52.6033 106.261 52.7385 106.656L35.6878 70.1524C35.5526 69.7566 35.4484 69.35 35.3695 68.9255Z" fill="url(#paint3_linear_7498_1234)"/>
<path d="M35.6836 70.1479L52.7343 106.652C52.8327 106.935 52.943 107.215 53.0675 107.484L36.0168 70.9801C35.8923 70.7112 35.778 70.4317 35.6836 70.1479Z" fill="url(#paint4_linear_7498_1234)"/>
<path d="M112.575 83.8507C112.564 83.803 112.546 83.7569 112.536 83.7091C112.439 83.3551 112.335 83.0068 112.227 82.6634C112.202 82.5855 112.178 82.5116 112.153 82.4336C112.138 82.3828 112.122 82.3279 112.103 82.2778C112.024 82.049 111.939 81.8258 111.853 81.6026C111.804 81.4716 111.758 81.3357 111.705 81.2054C111.549 80.81 111.383 80.4251 111.205 80.0427L94.1544 43.5386C94.3325 43.9209 94.4995 44.3098 94.6546 44.7013C94.7076 44.8315 94.7527 44.9634 94.8026 45.0985C94.9072 45.3717 95.0087 45.6497 95.1023 45.9295C95.1274 46.0074 95.1516 46.0813 95.1767 46.1592C95.2879 46.5018 95.3921 46.8501 95.4843 47.201C95.4945 47.2488 95.5128 47.2948 95.5231 47.3426C95.6221 47.7253 95.7149 48.1177 95.7949 48.5087C95.8138 48.5963 95.8335 48.6878 95.8532 48.7794C95.9237 49.1266 95.9832 49.4803 96.0396 49.8389C96.051 49.9114 96.0656 49.9791 96.0731 50.0525C96.1326 50.4645 96.1819 50.8871 96.2233 51.3114C96.2353 51.4254 96.2425 51.5363 96.2506 51.6512C96.2793 51.9782 96.3001 52.307 96.3178 52.6406C96.3253 52.7723 96.332 52.9 96.3355 53.0325C96.3498 53.4667 96.3611 53.9059 96.3603 54.3475C96.3564 54.6775 96.3484 55.0082 96.3365 55.3398C96.334 55.4445 96.3267 55.5461 96.3203 55.6516C96.3108 55.8785 96.2974 56.1064 96.28 56.335C96.2721 56.4533 96.2603 56.5725 96.2524 56.6908C96.2333 56.9116 96.2133 57.1283 96.1933 57.345C96.1806 57.4602 96.1679 57.5754 96.1553 57.6906C96.1245 57.9347 96.0946 58.1827 96.0598 58.4276C96.0482 58.5092 96.0366 58.5909 96.0251 58.6725C95.975 59.0207 95.9162 59.3665 95.8525 59.7093C95.8378 59.7958 95.8191 59.8831 95.8013 59.9744C95.7501 60.2395 95.694 60.5015 95.6388 60.7675C95.6164 60.8764 95.5892 60.9823 95.5669 61.0912C95.5014 61.3677 95.4351 61.6402 95.3617 61.9184C95.3436 61.989 95.3263 62.0635 95.3042 62.1349C95.2109 62.4757 95.1137 62.8174 95.0085 63.1608C94.981 63.2458 94.9535 63.3309 94.93 63.4151C94.8492 63.6782 94.7635 63.9383 94.6747 64.2031C94.6396 64.3107 94.6004 64.4191 94.5644 64.5226C94.4685 64.7932 94.3678 65.0606 94.2679 65.332C94.2379 65.4051 94.2126 65.4814 94.1825 65.5545C94.0509 65.8911 93.9113 66.2294 93.7677 66.5685C93.7314 66.6513 93.6942 66.7301 93.6579 66.8129C93.5435 67.075 93.4243 67.3339 93.3059 67.5968C93.2517 67.7126 93.1975 67.8284 93.1424 67.9402C93.0556 68.1172 92.9687 68.2942 92.8818 68.4711C92.8205 68.5926 92.7601 68.7181 92.6948 68.8405C92.6008 69.0231 92.5028 69.2067 92.4049 69.3902C92.3427 69.5077 92.2837 69.6204 92.2175 69.7388C92.1062 69.9377 91.9958 70.1406 91.8805 70.3403C91.826 70.4354 91.7723 70.5344 91.7138 70.6303C91.54 70.9259 91.3663 71.2216 91.1837 71.515C90.9715 71.8647 90.7458 72.2091 90.5208 72.5574C90.4583 72.6541 90.3919 72.7517 90.3294 72.8485C90.1434 73.126 89.9565 73.3994 89.7617 73.6746C89.7077 73.7529 89.6569 73.8263 89.5989 73.9054C89.3555 74.2453 89.1081 74.5859 88.8527 74.9283C88.7939 75.0034 88.7351 75.0786 88.6812 75.1568C88.4735 75.4306 88.2579 75.7061 88.0414 75.9776C87.9662 76.073 87.8909 76.1683 87.8156 76.2637C87.5426 76.6015 87.2656 76.9402 86.9798 77.2766L86.9719 77.2784C86.6838 77.6236 86.3901 77.9618 86.0875 78.2976C86.0034 78.3907 85.9162 78.4886 85.8321 78.5817C85.59 78.8504 85.34 79.1208 85.09 79.3912C85.0184 79.465 84.9516 79.5418 84.8808 79.6195C84.5655 79.954 84.2413 80.2862 83.9131 80.6193C83.681 80.8567 83.444 81.0909 83.203 81.3261C82.718 81.8012 82.2264 82.2652 81.7331 82.7213C81.6078 82.8358 81.4825 82.9502 81.3572 83.0647C80.8693 83.5071 80.3805 83.9455 79.8803 84.3697C79.8701 84.3803 79.8599 84.3908 79.8448 84.3982C79.3273 84.8387 78.8033 85.268 78.2735 85.6903C78.1741 85.77 78.0746 85.8497 77.9751 85.9295C77.4659 86.3307 76.9549 86.7239 76.4333 87.1069C76.3472 87.1713 76.2642 87.2308 76.1781 87.2951C75.6526 87.679 75.1214 88.0558 74.5876 88.4206C74.5624 88.4385 74.5371 88.4565 74.5118 88.4744C74.3046 88.6148 74.0917 88.7481 73.8836 88.8845C73.4684 89.1614 73.0491 89.439 72.6273 89.7048C72.3741 89.8634 72.1182 90.0101 71.8641 90.1648C71.4809 90.3972 71.0986 90.6336 70.7058 90.8598C70.317 91.0852 69.9176 91.3003 69.5222 91.5145C69.2797 91.6458 69.0429 91.7843 68.7996 91.9116C68.3138 92.1703 67.8206 92.4139 67.3273 92.6576C67.1696 92.7373 67.0166 92.8202 66.854 92.8969C66.1974 93.2132 65.531 93.5233 64.8612 93.8174C64.7319 93.8744 64.5968 93.9243 64.4675 93.9813C63.9262 94.2144 63.3809 94.4484 62.8322 94.6665C62.1223 94.9484 61.4099 95.2184 60.686 95.4742C60.5231 95.5301 60.3593 95.582 60.2004 95.6371C59.6346 95.8338 59.072 96.0258 58.4988 96.2075C57.8747 96.4043 57.2441 96.59 56.6126 96.7718C56.475 96.8097 56.3373 96.8477 56.2037 96.8848C55.5625 97.0603 54.9165 97.2326 54.2671 97.3891C54.1795 97.408 54.0919 97.4268 54.0052 97.4496C53.32 97.6138 52.633 97.77 51.9395 97.9151C51.2658 98.056 50.5967 98.1792 49.9348 98.2967C49.7826 98.3253 49.6296 98.3499 49.4767 98.3745C48.8258 98.4854 48.1763 98.5836 47.537 98.6712C47.4557 98.6804 47.3792 98.6927 47.3018 98.701C46.763 98.7712 46.2264 98.8325 45.6929 98.8891C45.4401 98.9143 45.1872 98.9396 44.9384 98.964C44.5053 99.0031 44.0793 99.0365 43.6516 99.0619C43.4178 99.0789 43.1801 99.0967 42.9446 99.1058C42.4586 99.1312 41.9788 99.1471 41.4982 99.1589C41.3321 99.1613 41.1677 99.1717 41.0016 99.1741C40.362 99.1827 39.7286 99.1816 39.1006 99.1668C38.9584 99.1641 38.8145 99.1534 38.6723 99.1507C38.1897 99.1338 37.7101 99.1121 37.2329 99.0815C37.013 99.0664 36.8003 99.0455 36.5844 99.0295C36.1814 98.9955 35.7823 98.9606 35.3895 98.916C35.1591 98.8906 34.9327 98.8644 34.7054 98.8342C34.3198 98.7839 33.9332 98.7296 33.5498 98.6706C33.3344 98.6378 33.1151 98.6058 32.8981 98.5651C32.4825 98.4921 32.0692 98.4103 31.6559 98.3285C31.4861 98.2942 31.3123 98.2608 31.1424 98.2266C30.5656 98.1008 29.9941 97.9614 29.4328 97.8115C29.3486 97.788 29.2635 97.7605 29.1802 97.7409C28.7023 97.6105 28.2257 97.4674 27.7563 97.3185C27.5686 97.2589 27.3839 97.1945 27.1953 97.131C26.8309 97.0054 26.4664 96.8797 26.1043 96.7452C25.9003 96.6684 25.6963 96.5915 25.4954 96.5097C25.15 96.3758 24.8069 96.2331 24.4669 96.0855C24.2692 95.999 24.0723 95.9164 23.8785 95.829C23.5192 95.6689 23.1652 95.4952 22.8113 95.3215C22.644 95.2408 22.4767 95.1602 22.3125 95.0748C21.7983 94.8147 21.2895 94.541 20.7902 94.2528C15.712 91.3473 12.1327 87.665 10.0542 83.214L27.1048 119.718C29.1834 124.169 32.7618 127.847 37.8408 130.757C38.3442 131.044 38.8521 131.314 39.3632 131.579C39.5273 131.664 39.6978 131.74 39.8619 131.826C40.2159 131.999 40.569 132.169 40.9292 132.333C41.123 132.421 41.3207 132.507 41.5176 132.59C41.8576 132.737 42.1999 132.876 42.5461 133.014C42.747 133.096 42.951 133.172 43.155 133.249C43.5171 133.384 43.8776 133.51 44.246 133.635C44.4346 133.699 44.6193 133.763 44.807 133.823C45.2764 133.971 45.7529 134.115 46.2309 134.245C46.3151 134.269 46.3961 134.297 46.4835 134.316C47.0496 134.469 47.6202 134.604 48.1931 134.731C48.3638 134.769 48.5367 134.798 48.7066 134.833C49.1168 134.919 49.5292 134.997 49.9488 135.069C50.165 135.106 50.3843 135.138 50.6004 135.175C50.9839 135.234 51.3664 135.289 51.7521 135.339C51.9794 135.369 52.2058 135.396 52.4362 135.421C52.833 135.465 53.2281 135.5 53.6311 135.534C53.847 135.551 54.0637 135.57 54.2836 135.586C54.7608 135.616 55.2404 135.638 55.723 135.655C55.8661 135.662 56.0091 135.668 56.1522 135.675C56.7802 135.69 57.4144 135.695 58.0531 135.682C58.2192 135.68 58.3845 135.673 58.5497 135.667C59.0303 135.655 59.5101 135.639 59.9961 135.614C60.2307 135.601 60.4685 135.583 60.7031 135.57C61.13 135.541 61.5568 135.511 61.9899 135.472C62.2436 135.451 62.4964 135.426 62.7484 135.396C62.9278 135.379 63.1041 135.366 63.2827 135.344C63.6368 135.305 63.9971 135.257 64.3534 135.209C64.4307 135.201 64.5121 135.192 64.5886 135.179C65.2278 135.092 65.8764 134.99 66.5282 134.883C66.6812 134.858 66.8333 134.829 66.9863 134.805C67.6483 134.687 68.3174 134.564 68.991 134.423C69.3532 134.345 69.7115 134.268 70.0738 134.19C70.4042 134.119 70.7281 134.037 71.0568 133.958C71.1443 133.939 71.2319 133.92 71.3186 133.897C71.9681 133.741 72.6141 133.568 73.2552 133.393C73.3928 133.355 73.5305 133.317 73.6681 133.279C74.2765 133.106 74.8842 132.93 75.4812 132.743C75.5051 132.738 75.5273 132.725 75.5552 132.719C76.1323 132.536 76.7029 132.343 77.2727 132.145C77.4277 132.091 77.5874 132.04 77.7464 131.985C78.4702 131.729 79.1867 131.458 79.8917 131.173C79.9037 131.17 79.9116 131.169 79.9227 131.162C80.4524 130.952 80.9746 130.727 81.4968 130.503C81.6381 130.443 81.7803 130.387 81.9207 130.324C82.5865 130.031 83.2458 129.726 83.8945 129.412L83.9104 129.408C84.0713 129.324 84.2322 129.239 84.3979 129.157C84.8872 128.915 85.3724 128.673 85.8551 128.419C86.0984 128.292 86.3352 128.153 86.5777 128.022C86.9501 127.817 87.3241 127.619 87.6908 127.407C87.713 127.394 87.7392 127.38 87.7605 127.363C88.1493 127.138 88.5316 126.901 88.9188 126.668C89.1729 126.513 89.4287 126.367 89.682 126.208C90.1038 125.942 90.519 125.666 90.9383 125.388C91.1392 125.257 91.341 125.13 91.5371 124.996C91.5482 124.99 91.5553 124.984 91.5664 124.978C91.5917 124.96 91.617 124.942 91.6423 124.924C92.1761 124.559 92.7073 124.182 93.2328 123.798C93.3189 123.734 93.4059 123.674 93.492 123.609C94.0095 123.227 94.5245 122.833 95.0338 122.432C95.1332 122.352 95.2327 122.272 95.3362 122.192C95.4712 122.084 95.607 121.979 95.742 121.871C96.1319 121.554 96.5201 121.229 96.9074 120.9C96.9177 120.889 96.9279 120.879 96.9429 120.871C97.4391 120.448 97.9319 120.009 98.4198 119.566C98.5451 119.452 98.6704 119.337 98.7957 119.223C99.289 118.767 99.7806 118.303 100.266 117.828C100.482 117.614 100.698 117.397 100.914 117.184C100.935 117.163 100.955 117.142 100.976 117.121C101.304 116.788 101.628 116.456 101.943 116.121C102.015 116.047 102.086 115.97 102.153 115.893C102.403 115.622 102.653 115.356 102.895 115.083C102.979 114.99 103.066 114.892 103.15 114.799C103.452 114.459 103.746 114.125 104.035 113.784L104.043 113.782C104.327 113.438 104.605 113.103 104.877 112.761C104.953 112.666 105.032 112.57 105.107 112.474C105.324 112.203 105.535 111.928 105.743 111.654C105.802 111.579 105.86 111.5 105.918 111.425C106.175 111.087 106.422 110.746 106.665 110.402C106.719 110.324 106.773 110.246 106.827 110.171C107.018 109.897 107.209 109.623 107.391 109.346C107.458 109.248 107.52 109.152 107.583 109.055C107.808 108.711 108.033 108.362 108.246 108.017C108.428 107.719 108.602 107.424 108.776 107.128C108.834 107.032 108.884 106.934 108.942 106.838C109.058 106.638 109.169 106.439 109.279 106.236C109.341 106.119 109.404 106.005 109.467 105.888C109.565 105.704 109.663 105.521 109.757 105.338C109.818 105.217 109.879 105.095 109.94 104.97C110.03 104.792 110.117 104.615 110.203 104.434C110.232 104.373 110.265 104.312 110.293 104.252C110.319 104.197 110.341 104.146 110.367 104.09C110.49 103.831 110.604 103.569 110.719 103.307C110.755 103.224 110.792 103.145 110.829 103.062C110.973 102.727 111.113 102.389 111.243 102.048C111.274 101.975 111.299 101.899 111.329 101.826C111.434 101.557 111.529 101.287 111.626 101.02C111.665 100.912 111.7 100.804 111.736 100.697C111.825 100.436 111.91 100.172 111.992 99.9127C112.019 99.8276 112.047 99.7426 112.074 99.6575C112.179 99.3141 112.278 98.9764 112.37 98.6317C112.388 98.5611 112.405 98.4866 112.427 98.4112C112.497 98.1378 112.567 97.8644 112.629 97.5888C112.655 97.479 112.677 97.37 112.701 97.2651C112.761 97.0022 112.812 96.7371 112.864 96.476C112.883 96.3887 112.901 96.3013 112.915 96.2109C112.978 95.8641 113.037 95.5182 113.088 95.1741C113.088 95.1573 113.094 95.1436 113.094 95.1269C113.104 95.058 113.111 94.99 113.121 94.9212C113.155 94.6763 113.186 94.4323 113.213 94.1891C113.226 94.0739 113.238 93.9587 113.25 93.8395C113.274 93.6219 113.294 93.4052 113.31 93.1893C113.322 93.0701 113.33 92.9518 113.337 92.8295C113.354 92.6008 113.365 92.3778 113.378 92.15C113.385 92.0445 113.391 91.939 113.393 91.8343C113.405 91.5027 113.414 91.1759 113.417 90.842C113.42 90.4874 113.415 90.1344 113.407 89.7863C113.405 89.6993 113.398 89.6131 113.396 89.5261C113.393 89.3936 113.386 89.2659 113.379 89.1342C113.361 88.8006 113.34 88.4719 113.312 88.1488C113.304 88.0339 113.292 87.9199 113.285 87.809C113.244 87.3847 113.195 86.9661 113.135 86.55C113.123 86.4775 113.113 86.409 113.101 86.3365C113.064 86.0863 113.023 85.8369 112.979 85.5923C112.956 85.4848 112.933 85.3813 112.911 85.2778C112.891 85.1863 112.872 85.0987 112.853 85.0071C112.768 84.613 112.684 84.2229 112.58 83.8371L112.575 83.8507Z" fill="url(#paint5_linear_7498_1234)"/>
<path d="M83.218 81.3181C74.5002 89.8717 64.0856 95.4 51.9672 97.9086C39.8418 100.423 29.4619 99.2042 20.8179 94.2463C12.1678 89.298 7.87026 82.1049 7.91923 72.6766C7.97035 63.1228 12.313 54.0782 20.9473 45.5426C29.5784 37.0118 40.0359 31.4702 52.3206 28.9216C64.6053 26.373 75.0267 27.5911 83.5902 32.5622C92.1536 37.5333 96.4154 44.7924 96.3642 54.3461C96.3153 63.7744 91.9319 72.7654 83.2172 81.3141L83.218 81.3181ZM35.1937 67.0263C35.1748 70.5958 36.8354 73.3374 40.1804 75.254C43.5214 77.1715 47.4858 77.651 52.0755 76.7005C56.6652 75.75 60.6386 73.6201 64.0094 70.3162C67.3794 67.0083 69.0748 63.5068 69.0919 59.8127C69.1089 56.1186 67.4503 53.3475 64.1062 51.4931C60.7622 49.6388 56.7958 49.1889 52.2101 50.1385C47.6244 51.0881 43.44 53.2634 40.1536 56.5533C36.8593 59.845 35.2116 63.3361 35.1906 67.0311" fill="url(#paint6_linear_7498_1234)"/>
<path d="M172.494 112.043C171.704 110.347 170.369 108.947 168.492 107.831C168.182 107.648 167.867 107.482 167.546 107.326C167.49 107.297 167.43 107.268 167.37 107.243C167.06 107.098 166.739 106.963 166.417 106.84C166.354 106.817 166.291 106.797 166.228 106.773C165.89 106.654 165.549 106.54 165.199 106.445C165.186 106.443 165.176 106.437 165.164 106.436C164.819 106.343 164.469 106.264 164.112 106.195C164.047 106.184 163.986 106.168 163.921 106.157C163.566 106.096 163.205 106.045 162.839 106.007C162.766 105.998 162.694 105.992 162.622 105.987C162.244 105.952 161.859 105.926 161.47 105.918C161.445 105.92 161.421 105.921 161.399 105.917C161.018 105.908 160.632 105.916 160.24 105.933C160.17 105.936 160.104 105.938 160.038 105.939C159.642 105.958 159.237 105.995 158.83 106.037C158.794 106.045 158.756 106.04 158.719 106.044C158.658 106.053 158.594 106.063 158.533 106.072C158.294 106.102 158.055 106.133 157.814 106.172C157.712 106.186 157.608 106.204 157.507 106.218C157.165 106.275 156.824 106.335 156.477 106.406C156.333 106.437 156.19 106.468 156.047 106.499C155.987 106.511 155.928 106.528 155.865 106.542C155.638 106.591 155.409 106.652 155.184 106.709C155.078 106.736 154.967 106.764 154.86 106.791C154.577 106.869 154.295 106.951 154.013 107.036C153.977 107.044 153.942 107.056 153.908 107.067L153.892 107.071C153.603 107.162 153.316 107.261 153.033 107.36C152.987 107.378 152.941 107.396 152.898 107.41C152.662 107.494 152.427 107.582 152.193 107.674C152.185 107.676 152.173 107.678 152.166 107.684C152.02 107.74 151.879 107.804 151.734 107.864C151.623 107.909 151.512 107.954 151.401 108.003C151.238 108.075 151.079 108.151 150.92 108.223C150.821 108.269 150.722 108.311 150.625 108.361L150.613 108.364C150.376 108.482 150.139 108.603 149.903 108.725C149.891 108.727 149.881 108.738 149.866 108.745C149.62 108.878 149.377 109.009 149.136 109.148L149.124 109.151C148.922 109.274 148.722 109.392 148.524 109.517C148.477 109.548 148.429 109.576 148.38 109.603C148.134 109.756 147.894 109.916 147.654 110.08L147.646 110.081C147.629 110.098 147.611 110.11 147.588 110.123C147.349 110.287 147.114 110.454 146.884 110.624C146.802 110.688 146.716 110.752 146.634 110.816C146.465 110.944 146.297 111.071 146.134 111.202C146.098 111.231 146.062 111.255 146.026 111.284C145.977 111.324 145.928 111.368 145.879 111.411C145.685 111.574 145.487 111.737 145.298 111.907C145.221 111.974 145.141 112.045 145.064 112.116C144.806 112.35 144.55 112.589 144.298 112.835C144.216 112.915 144.134 112.999 144.051 113.079C144.01 113.122 143.973 113.163 143.932 113.205C143.735 113.41 143.541 113.614 143.356 113.816C143.298 113.879 143.241 113.941 143.188 114.003C142.96 114.26 142.737 114.52 142.531 114.781C142.484 114.837 142.443 114.896 142.4 114.951C142.233 115.162 142.075 115.375 141.921 115.587C141.866 115.662 141.812 115.74 141.757 115.814C141.589 116.059 141.425 116.302 141.274 116.547C141.261 116.567 141.245 116.587 141.236 116.605C141.236 116.605 141.23 116.615 141.227 116.62C141.085 116.85 140.951 117.079 140.827 117.314C140.794 117.375 140.762 117.44 140.73 117.506C140.642 117.675 140.553 117.844 140.473 118.015C140.465 118.033 140.453 118.057 140.445 118.075C140.421 118.122 140.403 118.172 140.384 118.218C140.29 118.421 140.204 118.623 140.123 118.824C140.09 118.905 140.058 118.987 140.026 119.069C139.946 119.282 139.872 119.498 139.802 119.713C139.784 119.767 139.763 119.822 139.75 119.878C139.67 120.146 139.599 120.415 139.536 120.683C139.521 120.748 139.506 120.818 139.492 120.888C139.449 121.093 139.41 121.301 139.377 121.512C139.369 121.556 139.358 121.6 139.352 121.647C139.344 121.69 139.342 121.737 139.338 121.779C139.315 121.959 139.295 122.138 139.279 122.317C139.272 122.397 139.264 122.478 139.257 122.563C139.238 122.821 139.227 123.082 139.226 123.344C139.223 123.47 139.224 123.59 139.23 123.714C139.234 123.734 139.235 123.755 139.235 123.776C139.242 124.003 139.257 124.225 139.279 124.445C139.284 124.486 139.287 124.522 139.292 124.563C139.312 124.75 139.338 124.932 139.373 125.112C139.38 125.144 139.383 125.177 139.385 125.209C139.391 125.237 139.397 125.261 139.402 125.285C139.433 125.432 139.465 125.58 139.497 125.727C139.505 125.767 139.514 125.806 139.523 125.85C139.572 126.036 139.627 126.215 139.686 126.394C139.689 126.406 139.691 126.414 139.693 126.426C139.724 126.511 139.755 126.596 139.79 126.684C139.809 126.734 139.824 126.781 139.843 126.831C139.899 126.977 139.963 127.118 140.027 127.262L157.078 163.766C157.01 163.627 156.95 163.481 156.893 163.335C156.875 163.289 156.856 163.239 156.842 163.192C156.805 163.096 156.771 162.999 156.738 162.902C156.678 162.723 156.623 162.544 156.575 162.358C156.566 162.319 156.558 162.279 156.548 162.235C156.513 162.089 156.481 161.941 156.453 161.793C156.441 161.737 156.428 161.678 156.424 161.62C156.394 161.439 156.366 161.254 156.343 161.067C156.335 161.031 156.33 160.991 156.331 160.953C156.308 160.733 156.294 160.511 156.287 160.284C156.281 160.143 156.275 159.999 156.278 159.856C156.28 159.594 156.291 159.337 156.31 159.075C156.317 158.994 156.325 158.913 156.332 158.829C156.347 158.65 156.367 158.471 156.391 158.291C156.401 158.201 156.415 158.115 156.43 158.028C156.465 157.821 156.503 157.613 156.546 157.404C156.56 157.334 156.571 157.269 156.589 157.199C156.652 156.931 156.723 156.662 156.803 156.395C156.821 156.341 156.838 156.287 156.855 156.229C156.925 156.014 156.996 155.799 157.079 155.585C157.111 155.503 157.143 155.422 157.176 155.34C157.257 155.135 157.342 154.933 157.437 154.734C157.468 154.664 157.495 154.596 157.531 154.53C157.61 154.359 157.699 154.19 157.788 154.021C157.82 153.96 157.852 153.894 157.884 153.829C158.009 153.598 158.142 153.366 158.284 153.135C158.3 153.111 158.315 153.087 158.331 153.062C158.482 152.817 158.646 152.574 158.815 152.329C158.869 152.251 158.923 152.177 158.978 152.103C159.132 151.89 159.291 151.677 159.458 151.466C159.504 151.41 159.545 151.351 159.588 151.297C159.798 151.035 160.017 150.775 160.245 150.518C160.298 150.456 160.356 150.394 160.413 150.332C160.598 150.125 160.791 149.921 160.99 149.72C161.112 149.594 161.232 149.472 161.355 149.346C161.606 149.1 161.863 148.862 162.12 148.627C162.197 148.556 162.278 148.489 162.355 148.418C162.547 148.248 162.741 148.085 162.935 147.923C163.02 147.854 163.105 147.782 163.19 147.714C163.354 147.583 163.522 147.455 163.69 147.327C163.776 147.263 163.858 147.199 163.944 147.135C164.178 146.964 164.412 146.793 164.652 146.628C164.67 146.616 164.691 146.599 164.71 146.587C164.949 146.423 165.194 146.266 165.44 146.109C165.491 146.077 165.543 146.049 165.591 146.018C165.786 145.897 165.984 145.775 166.185 145.661C166.429 145.521 166.675 145.385 166.925 145.252C166.933 145.25 166.945 145.244 166.952 145.238C167.191 145.111 167.435 144.988 167.684 144.868C167.783 144.822 167.881 144.775 167.979 144.729C168.138 144.653 168.297 144.578 168.461 144.509C168.567 144.461 168.678 144.416 168.789 144.372C168.942 144.305 169.098 144.238 169.255 144.175C169.486 144.084 169.721 143.996 169.957 143.912C170.003 143.894 170.049 143.876 170.096 143.861C170.378 143.759 170.666 143.664 170.954 143.572C170.998 143.563 171.036 143.546 171.08 143.537C171.357 143.452 171.64 143.371 171.927 143.292C172.034 143.265 172.144 143.237 172.251 143.21C172.476 143.153 172.701 143.096 172.927 143.044C173.13 143 173.332 142.948 173.539 142.908C173.886 142.833 174.232 142.775 174.569 142.719C174.674 142.701 174.775 142.687 174.88 142.673C175.122 142.638 175.361 142.603 175.6 142.572C175.697 142.56 175.798 142.546 175.896 142.538C176.303 142.492 176.708 142.459 177.104 142.44C177.174 142.438 177.241 142.436 177.307 142.434C177.699 142.416 178.085 142.412 178.466 142.418C178.49 142.417 178.515 142.416 178.541 142.418C178.931 142.43 179.314 142.452 179.693 142.487C179.765 142.492 179.837 142.502 179.909 142.507C180.276 142.545 180.637 142.596 180.991 142.657C181.056 142.668 181.118 142.684 181.183 142.695C181.539 142.764 181.889 142.843 182.234 142.935C182.247 142.937 182.257 142.943 182.269 142.944C182.619 143.04 182.96 143.154 183.298 143.273C183.362 143.297 183.424 143.316 183.488 143.34C183.81 143.463 184.13 143.594 184.441 143.743C184.501 143.772 184.557 143.801 184.617 143.826C184.938 143.982 185.257 144.147 185.563 144.331C187.439 145.443 188.77 146.847 189.564 148.543L172.514 112.039L172.494 112.043Z" fill="url(#paint7_linear_7498_1234)"/>
<path d="M79.8336 167.343L96.8803 203.848L68.6297 209.704L51.5781 173.196L79.8336 167.343Z" fill="url(#paint8_linear_7498_1234)"/>
<path d="M127.488 16.2116L155.987 10.3062L79.8384 167.344L51.583 173.197L127.488 16.2116Z" fill="url(#paint9_linear_7498_1234)"/>
<path d="M155.984 10.3053L173.034 46.8095L96.8821 203.848L79.8354 167.343L155.984 10.3053Z" fill="url(#paint10_linear_7498_1234)"/>
<path d="M216.832 140.123C216.822 140.075 216.804 140.029 216.794 139.982C216.697 139.628 216.592 139.279 216.485 138.936C216.46 138.858 216.436 138.784 216.411 138.706C216.391 138.652 216.38 138.6 216.36 138.546C216.281 138.317 216.192 138.095 216.11 137.871C216.061 137.74 216.016 137.608 215.963 137.478C215.807 137.082 215.64 136.693 215.462 136.311L198.411 99.807C198.589 100.189 198.756 100.578 198.912 100.974C198.965 101.104 199.01 101.236 199.06 101.367C199.165 101.644 199.266 101.918 199.36 102.202C199.385 102.28 199.409 102.354 199.434 102.432C199.547 102.778 199.651 103.127 199.743 103.477C199.753 103.525 199.771 103.571 199.782 103.619C199.881 104.002 199.974 104.394 200.054 104.789C200.074 104.881 200.093 104.968 200.113 105.06C200.184 105.411 200.244 105.765 200.299 106.119C200.311 106.192 200.325 106.259 200.333 106.333C200.393 106.749 200.441 107.167 200.483 107.592C200.495 107.706 200.503 107.821 200.51 107.932C200.539 108.259 200.56 108.587 200.577 108.921C200.585 109.053 200.591 109.18 200.595 109.313C200.609 109.747 200.621 110.186 200.62 110.628C200.616 110.958 200.608 111.289 200.596 111.62C200.594 111.725 200.587 111.83 200.58 111.932C200.57 112.159 200.557 112.387 200.539 112.615C200.532 112.734 200.52 112.853 200.512 112.971C200.493 113.192 200.473 113.409 200.45 113.63C200.437 113.745 200.428 113.86 200.411 113.972C200.381 114.22 200.347 114.469 200.313 114.718C200.301 114.795 200.293 114.876 200.281 114.954C200.231 115.302 200.172 115.648 200.105 115.995C200.087 116.087 200.068 116.174 200.054 116.26C200.002 116.526 199.947 116.792 199.887 117.054C199.864 117.159 199.842 117.268 199.814 117.374C199.747 117.659 199.679 117.945 199.602 118.228C199.587 118.294 199.572 118.355 199.553 118.422C199.46 118.767 199.363 119.108 199.258 119.452C199.231 119.541 199.2 119.631 199.174 119.72C199.093 119.983 199.007 120.243 198.918 120.504C198.883 120.611 198.847 120.715 198.807 120.823C198.706 121.107 198.604 121.388 198.494 121.67C198.47 121.733 198.446 121.796 198.422 121.856C198.287 122.197 198.147 122.536 198.004 122.875C197.964 122.962 197.925 123.05 197.889 123.137C197.774 123.395 197.659 123.653 197.54 123.912C197.488 124.023 197.433 124.135 197.382 124.246C197.293 124.431 197.203 124.613 197.11 124.8C197.052 124.917 196.991 125.038 196.932 125.155C196.833 125.351 196.729 125.544 196.625 125.741C196.57 125.849 196.513 125.953 196.457 126.061C196.325 126.302 196.186 126.544 196.051 126.786C196.017 126.843 195.984 126.904 195.951 126.961C195.778 127.261 195.596 127.558 195.415 127.86C195.384 127.908 195.354 127.96 195.322 128.009C195.134 128.316 194.938 128.621 194.737 128.926C194.674 129.023 194.608 129.121 194.541 129.218C194.337 129.525 194.128 129.832 193.911 130.141C193.879 130.185 193.851 130.229 193.819 130.273C193.573 130.622 193.318 130.964 193.059 131.312C192.991 131.401 192.92 131.496 192.852 131.585C192.64 131.86 192.429 132.139 192.21 132.415C192.144 132.496 192.079 132.581 192.014 132.666C191.738 133.008 191.458 133.352 191.169 133.693C191.112 133.759 191.052 133.83 190.992 133.898C190.748 134.179 190.506 134.465 190.254 134.744C190.169 134.837 190.086 134.934 189.998 135.028C189.696 135.364 189.392 135.696 189.077 136.03C189.067 136.041 189.06 136.05 189.049 136.057C188.727 136.397 188.396 136.739 188.065 137.077C187.867 137.278 187.668 137.479 187.466 137.681C186.982 138.16 186.487 138.629 185.995 139.089C185.863 139.213 185.727 139.334 185.595 139.458C185.167 139.85 184.734 140.235 184.295 140.617C184.218 140.683 184.141 140.754 184.064 140.821C183.551 141.26 183.034 141.688 182.509 142.109C182.413 142.188 182.317 142.263 182.217 142.339C181.697 142.75 181.176 143.154 180.644 143.548C180.597 143.583 180.551 143.618 180.5 143.654C179.983 144.036 179.463 144.406 178.937 144.769C178.864 144.818 178.792 144.871 178.719 144.92C178.425 145.121 178.124 145.311 177.829 145.507C177.49 145.73 177.156 145.956 176.814 146.171C176.521 146.355 176.222 146.532 175.927 146.712C175.584 146.919 175.246 147.13 174.902 147.329C174.542 147.535 174.177 147.735 173.816 147.933C173.548 148.083 173.281 148.236 173.007 148.378C172.622 148.582 172.227 148.779 171.837 148.976C171.581 149.106 171.327 149.24 171.067 149.366C170.656 149.567 170.238 149.753 169.821 149.947C169.575 150.058 169.33 150.178 169.083 150.289C168.569 150.516 168.049 150.732 167.525 150.945C167.367 151.008 167.216 151.078 167.059 151.141C166.924 151.195 166.789 151.241 166.654 151.295C166.078 151.519 165.505 151.742 164.92 151.947C164.661 152.041 164.396 152.123 164.136 152.212C163.67 152.371 163.209 152.532 162.737 152.68C162.121 152.875 161.498 153.059 160.871 153.24C160.737 153.277 160.6 153.315 160.466 153.352C159.825 153.527 159.179 153.7 158.525 153.857C158.446 153.874 158.366 153.891 158.287 153.913C157.598 154.078 156.907 154.235 156.21 154.381C155.528 154.523 154.851 154.648 154.181 154.767C154.021 154.798 153.864 154.823 153.703 154.849C153.04 154.963 152.383 155.063 151.732 155.153C151.667 155.163 151.606 155.168 151.541 155.177C150.974 155.253 150.413 155.316 149.855 155.374C149.667 155.393 149.484 155.412 149.3 155.427C148.863 155.466 148.429 155.506 147.999 155.536C147.809 155.547 147.621 155.563 147.432 155.574C147.012 155.598 146.593 155.622 146.175 155.637C145.985 155.644 145.79 155.649 145.6 155.656C145.194 155.665 144.787 155.673 144.387 155.672C144.192 155.672 143.996 155.673 143.803 155.668C143.411 155.665 143.017 155.654 142.627 155.642C142.43 155.635 142.233 155.627 142.039 155.619C141.66 155.601 141.281 155.578 140.903 155.547C140.704 155.532 140.505 155.516 140.306 155.501C139.937 155.468 139.574 155.429 139.211 155.386C139.01 155.363 138.809 155.34 138.608 155.316C138.253 155.272 137.9 155.219 137.551 155.165C137.349 155.133 137.146 155.102 136.948 155.07C136.602 155.011 136.263 154.946 135.923 154.878C135.719 154.839 135.515 154.799 135.314 154.755C134.982 154.685 134.653 154.606 134.323 154.527C134.121 154.479 133.915 154.431 133.716 154.378C133.394 154.293 133.075 154.204 132.755 154.11C132.555 154.053 132.352 153.997 132.151 153.936C131.834 153.838 131.524 153.734 131.21 153.631C131.013 153.565 130.812 153.5 130.617 153.429C130.306 153.317 130.001 153.199 129.693 153.083C129.502 153.007 129.308 152.94 129.116 152.861C128.806 152.736 128.497 152.598 128.194 152.464C128.014 152.386 127.831 152.309 127.651 152.227C127.318 152.073 126.991 151.91 126.669 151.747C126.519 151.671 126.367 151.603 126.217 151.527C125.744 151.283 125.277 151.03 124.817 150.767C122.607 149.501 120.683 148.087 119.042 146.52C118.57 146.072 118.126 145.613 117.704 145.142C116.223 143.49 115.028 141.69 114.116 139.737L131.167 176.241C132.859 179.867 135.532 182.974 139.184 185.562C139.464 185.76 139.752 185.956 140.044 186.151C140.627 186.538 141.236 186.911 141.867 187.271C149.108 191.419 157.624 192.938 167.415 191.826C167.806 191.784 168.199 191.733 168.595 191.677C168.655 191.668 168.721 191.662 168.781 191.653C169.433 191.563 170.093 191.458 170.753 191.35C170.91 191.324 171.07 191.294 171.227 191.268C171.897 191.149 172.574 191.024 173.255 190.882C173.614 190.805 173.972 190.727 174.326 190.651C174.665 190.578 175.001 190.494 175.337 190.413C175.417 190.396 175.496 190.378 175.571 190.358C176.224 190.197 176.871 190.028 177.512 189.853C177.645 189.816 177.779 189.779 177.913 189.742C178.505 189.572 179.097 189.399 179.682 189.215C179.718 189.207 179.748 189.192 179.783 189.181C180.251 189.034 180.712 188.872 181.178 188.714C181.442 188.624 181.707 188.542 181.966 188.448C182.546 188.24 183.116 188.022 183.684 187.8C183.818 187.746 183.958 187.699 184.093 187.645L184.108 187.642C184.258 187.58 184.402 187.516 184.547 187.455C185.075 187.238 185.607 187.019 186.129 186.79C186.376 186.683 186.617 186.564 186.86 186.454C187.254 186.273 187.65 186.096 188.038 185.908C188.064 185.894 188.086 185.881 188.113 185.871C188.374 185.745 188.628 185.611 188.883 185.481C189.274 185.284 189.666 185.092 190.05 184.884C190.323 184.738 190.59 184.584 190.861 184.434C191.178 184.262 191.496 184.094 191.807 183.914C191.856 183.887 191.899 183.857 191.948 183.83C192.296 183.63 192.634 183.42 192.981 183.212C193.275 183.032 193.572 182.86 193.865 182.676C194.21 182.46 194.545 182.234 194.884 182.011C195.136 181.844 195.393 181.684 195.64 181.515C195.683 181.485 195.727 181.454 195.77 181.424C195.843 181.375 195.915 181.322 195.987 181.273C196.513 180.91 197.033 180.54 197.547 180.159C197.594 180.124 197.64 180.089 197.691 180.053C198.219 179.66 198.744 179.255 199.263 178.844C199.36 178.769 199.459 178.689 199.555 178.614C199.648 178.54 199.737 178.471 199.829 178.397C200.258 178.046 200.685 177.688 201.111 177.326C201.188 177.259 201.264 177.188 201.342 177.122C201.781 176.744 202.21 176.356 202.642 175.963C202.774 175.843 202.91 175.718 203.041 175.594C203.538 175.133 204.029 174.669 204.514 174.19C204.675 174.03 204.836 173.87 204.997 173.707C205.038 173.664 205.076 173.627 205.113 173.586C205.448 173.247 205.778 172.905 206.101 172.565C206.107 172.555 206.114 172.55 206.12 172.54C206.436 172.206 206.742 171.869 207.046 171.537C207.13 171.444 207.217 171.346 207.301 171.253C207.553 170.97 207.8 170.687 208.039 170.407C208.096 170.34 208.156 170.269 208.212 170.203C208.501 169.862 208.781 169.518 209.057 169.175C209.123 169.095 209.188 169.01 209.253 168.925C209.473 168.649 209.689 168.373 209.895 168.095C209.964 168.006 210.035 167.911 210.103 167.821C210.361 167.474 210.617 167.132 210.863 166.783C210.895 166.739 210.923 166.695 210.955 166.651C211.172 166.342 211.38 166.035 211.585 165.728C211.652 165.63 211.714 165.534 211.78 165.436C211.981 165.13 212.178 164.826 212.366 164.519C212.391 164.48 212.416 164.441 212.437 164.403C212.443 164.394 212.449 164.38 212.459 164.369C212.641 164.072 212.822 163.771 212.994 163.471C213.028 163.414 213.061 163.357 213.094 163.296C213.234 163.053 213.369 162.812 213.5 162.571C213.557 162.467 213.613 162.359 213.669 162.251C213.772 162.054 213.877 161.861 213.976 161.665C214.038 161.547 214.095 161.426 214.157 161.305C214.247 161.123 214.34 160.936 214.426 160.755C214.451 160.7 214.481 160.644 214.507 160.588C214.532 160.533 214.557 160.473 214.582 160.418C214.702 160.159 214.818 159.905 214.929 159.647C214.968 159.56 215.007 159.468 215.046 159.381C215.19 159.041 215.33 158.703 215.464 158.362C215.488 158.298 215.512 158.235 215.536 158.171C215.642 157.89 215.748 157.609 215.846 157.33C215.881 157.222 215.921 157.118 215.956 157.01C216.046 156.75 216.132 156.489 216.213 156.23C216.24 156.141 216.271 156.051 216.297 155.962C216.403 155.619 216.5 155.277 216.592 154.933C216.611 154.866 216.626 154.8 216.641 154.735C216.714 154.452 216.786 154.17 216.85 153.886C216.876 153.776 216.9 153.671 216.922 153.562C216.982 153.299 217.033 153.034 217.084 152.769C217.102 152.678 217.121 152.59 217.139 152.499C217.202 152.152 217.26 151.806 217.314 151.457C217.316 151.444 217.32 151.427 217.322 151.414C217.333 151.349 217.339 151.281 217.346 151.217C217.38 150.968 217.415 150.723 217.441 150.476C217.453 150.361 217.466 150.246 217.479 150.131C217.503 149.913 217.522 149.692 217.541 149.472C217.553 149.352 217.561 149.234 217.568 149.112C217.585 148.883 217.595 148.656 217.608 148.428C217.614 148.323 217.621 148.217 217.623 148.113C217.635 147.781 217.643 147.45 217.647 147.12C217.65 146.766 217.645 146.413 217.637 146.065C217.634 145.978 217.628 145.891 217.622 145.805C217.619 145.673 217.612 145.545 217.605 145.413C217.587 145.08 217.566 144.751 217.537 144.424C217.529 144.309 217.521 144.194 217.51 144.084C217.469 143.66 217.42 143.241 217.36 142.825C217.348 142.753 217.338 142.684 217.326 142.612C217.289 142.362 217.248 142.112 217.203 141.864C217.181 141.76 217.158 141.657 217.135 141.549C217.115 141.458 217.097 141.37 217.077 141.278C216.992 140.884 216.908 140.494 216.804 140.108L216.832 140.123Z" fill="url(#paint11_linear_7498_1234)"/>
<path d="M187.858 88.8383C196.422 93.8134 200.679 101.069 200.629 110.627C200.58 120.055 196.198 129.075 187.485 137.686C178.765 146.307 168.348 151.865 156.227 154.378C143.945 156.922 133.478 155.722 124.834 150.768C116.187 145.815 111.889 138.56 111.936 129.007C111.986 119.449 116.367 110.405 125.084 101.847C133.798 93.2983 144.3 87.7472 156.581 85.2034C168.863 82.6597 179.29 83.8681 187.858 88.8383ZM168.276 126.78C171.642 123.473 173.341 119.971 173.362 116.276C173.383 112.581 171.758 109.769 168.496 107.835C165.228 105.906 161.227 105.43 156.477 106.411C151.727 107.391 147.667 109.544 144.296 112.848C140.922 116.157 139.227 119.658 139.21 123.352C139.193 127.047 140.897 129.683 144.323 131.645C147.748 133.606 151.752 134.115 156.338 133.165C160.924 132.216 164.901 130.085 168.276 126.78Z" fill="url(#paint12_linear_7498_1234)"/>
<mask id="mask0_7498_1234" style="mask-type:alpha" maskUnits="userSpaceOnUse" x="7" y="10" width="211" height="200">
<path d="M68.2609 55.702C67.457 53.9799 66.0715 52.5745 64.1093 51.4891C63.7929 51.3156 63.4711 51.1558 63.143 51.0056C63.0827 50.9769 63.0272 50.9514 62.9669 50.9227C62.6494 50.7828 62.3304 50.6557 62.0013 50.5391C61.9378 50.5153 61.8752 50.4954 61.8118 50.4716C61.4747 50.3567 61.1304 50.2476 60.7777 50.1569C60.7649 50.1555 60.7512 50.1501 60.7424 50.1478C60.3985 50.0594 60.0492 49.9846 59.6936 49.9196C59.6287 49.9085 59.5679 49.8966 59.503 49.8856C59.1523 49.8236 58.7922 49.7762 58.4307 49.7416C58.3587 49.7362 58.2859 49.7269 58.2139 49.7216C57.8405 49.6895 57.4639 49.6622 57.0788 49.6535C57.0541 49.6547 57.0285 49.6518 56.9998 49.6539C56.6275 49.6465 56.2498 49.6529 55.8659 49.6689C55.7996 49.6706 55.7333 49.6724 55.6679 49.6781C55.2809 49.699 54.8876 49.7295 54.4889 49.7737C54.453 49.7814 54.4186 49.7763 54.3828 49.784C54.3222 49.7929 54.2617 49.8017 54.2051 49.8098C53.9739 49.8387 53.7435 49.8716 53.5092 49.9054C53.4088 49.9228 53.3116 49.9354 53.2112 49.9529C52.8814 50.0072 52.5524 50.0656 52.218 50.1375C52.0746 50.1684 51.9313 50.1992 51.788 50.2301C51.7283 50.2429 51.6655 50.2606 51.6058 50.2735C51.3789 50.3223 51.1585 50.3823 50.9333 50.4391C50.8227 50.467 50.7161 50.4941 50.6063 50.5261C50.3311 50.602 50.0567 50.6819 49.7872 50.7649C49.7434 50.7743 49.7044 50.7869 49.6615 50.8003L49.6416 50.8046C49.3809 50.8899 49.1202 50.9751 48.8651 51.0675C48.8413 51.0727 48.8142 51.0826 48.7912 51.0918C48.5083 51.1901 48.2311 51.2956 47.9588 51.4042L47.9428 51.4077C47.7245 51.4963 47.507 51.589 47.2944 51.6847C47.2563 51.7012 47.2182 51.7178 47.1801 51.7343C46.9254 51.8475 46.6715 51.9646 46.4225 52.0848L46.4105 52.0874C46.3472 52.1219 46.2877 52.1555 46.2235 52.186C46.0356 52.2806 45.8508 52.3703 45.6678 52.4681C45.5782 52.5165 45.4855 52.5698 45.396 52.6182C45.2581 52.6937 45.1203 52.7692 44.9824 52.8447C44.9673 52.8521 44.9531 52.8635 44.9381 52.8709C44.8161 52.9429 44.6942 53.015 44.5731 53.0911C44.4512 53.1631 44.3292 53.2352 44.2081 53.3112C44.087 53.3873 43.9708 53.4665 43.8537 53.5417C43.7477 53.6103 43.6416 53.6789 43.5396 53.7467C43.5245 53.7541 43.5143 53.7647 43.5001 53.7761C43.2494 53.9466 43.0004 54.1252 42.7563 54.3069C42.727 54.3257 42.7026 54.3476 42.6782 54.3695C42.4593 54.5333 42.2453 54.7001 42.0322 54.871C42.018 54.8823 41.9998 54.8946 41.9824 54.9108C41.9438 54.9441 41.9051 54.9774 41.8665 55.0107C41.6329 55.2027 41.4081 55.3968 41.1811 55.5998C41.1078 55.6656 41.0305 55.7322 40.958 55.802C40.69 56.0471 40.4238 56.3002 40.1632 56.5603C40.1388 56.5823 40.1192 56.6073 40.0947 56.6292C40.0601 56.6617 40.0342 56.6964 39.9996 56.7289C39.7839 56.9461 39.5771 57.1655 39.379 57.3873C39.3114 57.4601 39.2447 57.537 39.181 57.609C38.9799 57.8356 38.7867 58.0604 38.6023 58.2876C38.5725 58.3231 38.5395 58.3635 38.5097 58.3991C38.2995 58.661 38.1061 58.9234 37.9166 59.1849C37.8649 59.2544 37.818 59.3269 37.7703 59.3955C37.6272 59.6013 37.4889 59.8102 37.3554 60.0222C37.3273 60.0657 37.2952 60.1101 37.2679 60.1576C37.2492 60.1866 37.2344 60.2148 37.2197 60.243C37.1152 60.4154 37.0186 60.5862 36.9221 60.7569C36.8863 60.8229 36.8466 60.8898 36.8099 60.9518C36.6816 61.1877 36.5621 61.4259 36.4474 61.6671C36.4443 61.672 36.442 61.6808 36.4389 61.6856C36.4281 61.7129 36.4173 61.7403 36.4057 61.7636C36.2981 61.9992 36.1985 62.233 36.1037 62.47C36.0714 62.552 36.0422 62.6291 36.0098 62.711C35.9329 62.915 35.8609 63.1221 35.7968 63.3275C35.7747 63.3989 35.7517 63.4664 35.7296 63.5378C35.6497 63.8049 35.5745 64.0751 35.5162 64.3459C35.5066 64.398 35.4961 64.4461 35.4865 64.4981C35.4395 64.7248 35.3965 64.9507 35.3614 65.1748C35.3532 65.2141 35.345 65.2534 35.3408 65.2918C35.3343 65.339 35.3317 65.3853 35.3252 65.4325C35.2984 65.6174 35.2795 65.8006 35.2615 65.9878C35.2539 66.0685 35.2471 66.1533 35.2395 66.2341C35.221 66.4963 35.2073 66.7617 35.2064 67.0284L52.2571 103.533C52.258 103.266 52.2717 103 52.2902 102.738C52.2978 102.657 52.3046 102.573 52.3122 102.492C52.3302 102.305 52.3491 102.122 52.3759 101.937C52.3866 101.851 52.4005 101.761 52.4152 101.674C52.4494 101.446 52.4924 101.22 52.5403 100.997C52.5499 100.945 52.5604 100.897 52.57 100.845C52.6323 100.574 52.7035 100.304 52.7834 100.037C52.8055 99.9657 52.8285 99.8982 52.8506 99.8268C52.9147 99.6214 52.9867 99.4143 53.0636 99.2103C53.092 99.1292 53.1243 99.0473 53.1575 98.9693C53.2523 98.7323 53.3519 98.4985 53.4595 98.2629C53.4734 98.2307 53.4873 98.1986 53.5012 98.1664C53.6119 97.926 53.7354 97.687 53.8637 97.4511C53.8995 97.3851 53.9393 97.3182 53.9759 97.2562C54.0724 97.0855 54.169 96.9147 54.2735 96.7423C54.3163 96.6706 54.3672 96.5971 54.4101 96.5254C54.5444 96.3174 54.6827 96.1085 54.825 95.8988C54.8727 95.8302 54.9235 95.7568 54.9713 95.6882C55.1607 95.4267 55.3581 95.1634 55.5644 94.9024C55.5933 94.8629 55.6271 94.8264 55.657 94.7908C55.8413 94.5637 56.0345 94.3388 56.2317 94.1131C56.2985 94.0363 56.3661 93.9634 56.4337 93.8905C56.6326 93.6728 56.8394 93.4533 57.0542 93.2321C57.1085 93.1746 57.1596 93.122 57.2139 93.0645C57.4745 92.8043 57.7416 92.5552 58.0087 92.3061C58.082 92.2403 58.1584 92.1697 58.2317 92.104C58.4557 91.9058 58.6836 91.7068 58.918 91.5189C58.9749 91.4733 59.0269 91.4246 59.0837 91.3791C59.2969 91.2082 59.5109 91.0414 59.7257 90.8785C59.755 90.8597 59.7794 90.8378 59.8079 90.815C60.052 90.6333 60.3018 90.4587 60.5516 90.2842C60.6679 90.205 60.789 90.1289 60.9052 90.0498C61.0215 89.9706 61.1426 89.8946 61.2597 89.8194C61.3807 89.7433 61.5027 89.6712 61.6246 89.5992C61.7466 89.5271 61.8677 89.4511 61.9896 89.379C62.1417 89.2921 62.2906 89.2101 62.4436 89.1272C62.5331 89.0787 62.6258 89.0255 62.7153 88.977C62.8984 88.8793 63.0863 88.7847 63.2711 88.695C63.3353 88.6645 63.3947 88.6308 63.459 88.6004C63.712 88.4792 63.969 88.3573 64.2277 88.2433C64.2657 88.2268 64.3038 88.2102 64.3419 88.1937C64.5625 88.0962 64.784 88.0027 65.0063 87.9132C65.2827 87.8037 65.5599 87.6983 65.8388 87.6007C65.8627 87.5956 65.8857 87.5865 65.9127 87.5765C66.1686 87.4881 66.4284 87.3988 66.69 87.3175C66.7369 87.3033 66.7878 87.2881 66.8387 87.273C67.1082 87.19 67.3826 87.1101 67.6579 87.0342C67.7645 87.0071 67.8751 86.9791 67.9848 86.9472C68.206 86.8912 68.4313 86.8344 68.6573 86.7816C68.8603 86.7379 69.0616 86.6862 69.2695 86.6456C69.6039 86.5737 69.9369 86.5145 70.2627 86.461C70.3631 86.4436 70.4644 86.4301 70.5608 86.4135C70.7951 86.3797 71.0254 86.3468 71.2566 86.3179C71.3539 86.3053 71.4471 86.2935 71.5452 86.2849C71.9439 86.2407 72.3372 86.2102 72.7243 86.1894C72.7906 86.1876 72.8568 86.1858 72.9222 86.1801C73.3062 86.1641 73.6838 86.1578 74.0561 86.1651C74.0809 86.1639 74.1065 86.1668 74.1352 86.1647C74.5203 86.1735 74.896 86.1967 75.2703 86.2328C75.3423 86.2381 75.4142 86.2435 75.487 86.2528C75.8494 86.2914 76.2055 86.3397 76.5594 86.3968C76.6242 86.4079 76.6851 86.4198 76.75 86.4308C77.1055 86.4959 77.4549 86.5706 77.7988 86.659C77.8116 86.6605 77.8252 86.6658 77.838 86.6673C78.1868 86.7588 78.531 86.868 78.8721 86.982C78.9356 87.0058 78.9982 87.0257 79.0616 87.0495C79.3868 87.1669 79.7097 87.2932 80.0272 87.4331C80.0867 87.4578 80.147 87.4865 80.2034 87.516C80.5314 87.6661 80.8532 87.826 81.1696 87.9994C83.1327 89.0889 84.5174 90.4903 85.3213 92.2124L68.2706 55.7083L68.2609 55.702Z" fill="url(#paint13_linear_7498_1234)"/>
<path d="M35.2035 67.0236L52.2542 103.528C52.252 103.653 52.2547 103.782 52.2605 103.905L35.2098 67.4013C35.208 67.2768 35.2053 67.1482 35.2035 67.0236Z" fill="url(#paint14_linear_7498_1234)"/>
<path d="M35.2067 67.4014L52.2573 103.906C52.2706 104.432 52.3251 104.936 52.4138 105.426L35.3631 68.9214C35.2745 68.4323 35.22 67.9275 35.2067 67.4014Z" fill="url(#paint15_linear_7498_1234)"/>
<path d="M35.3695 68.9255L52.4202 105.43C52.4982 105.85 52.6033 106.261 52.7385 106.656L35.6878 70.1524C35.5526 69.7566 35.4484 69.35 35.3695 68.9255Z" fill="url(#paint16_linear_7498_1234)"/>
<path d="M35.6836 70.1479L52.7343 106.652C52.8327 106.935 52.943 107.215 53.0675 107.484L36.0168 70.9801C35.8923 70.7112 35.778 70.4317 35.6836 70.1479Z" fill="url(#paint17_linear_7498_1234)"/>
<path d="M112.575 83.8507C112.564 83.803 112.546 83.7569 112.536 83.7091C112.439 83.3551 112.335 83.0068 112.227 82.6634C112.202 82.5855 112.178 82.5116 112.153 82.4336C112.138 82.3828 112.122 82.3279 112.103 82.2778C112.024 82.049 111.939 81.8258 111.853 81.6026C111.804 81.4716 111.758 81.3357 111.705 81.2054C111.549 80.81 111.383 80.4251 111.205 80.0427L94.1544 43.5386C94.3325 43.9209 94.4995 44.3098 94.6546 44.7013C94.7076 44.8315 94.7527 44.9634 94.8026 45.0985C94.9072 45.3717 95.0087 45.6497 95.1023 45.9295C95.1274 46.0074 95.1516 46.0813 95.1767 46.1592C95.2879 46.5018 95.3921 46.8501 95.4843 47.201C95.4945 47.2488 95.5128 47.2948 95.5231 47.3426C95.6221 47.7253 95.7149 48.1177 95.7949 48.5087C95.8138 48.5963 95.8335 48.6878 95.8532 48.7794C95.9237 49.1266 95.9832 49.4803 96.0396 49.8389C96.051 49.9114 96.0656 49.9791 96.0731 50.0525C96.1326 50.4645 96.1819 50.8871 96.2233 51.3114C96.2353 51.4254 96.2425 51.5363 96.2506 51.6512C96.2793 51.9782 96.3001 52.307 96.3178 52.6406C96.3253 52.7723 96.332 52.9 96.3355 53.0325C96.3498 53.4667 96.3611 53.9059 96.3603 54.3475C96.3564 54.6775 96.3484 55.0082 96.3365 55.3398C96.334 55.4445 96.3267 55.5461 96.3203 55.6516C96.3108 55.8785 96.2974 56.1064 96.28 56.335C96.2721 56.4533 96.2603 56.5725 96.2524 56.6908C96.2333 56.9116 96.2133 57.1283 96.1933 57.345C96.1806 57.4602 96.1679 57.5754 96.1553 57.6906C96.1245 57.9347 96.0946 58.1827 96.0598 58.4276C96.0482 58.5092 96.0366 58.5909 96.0251 58.6725C95.975 59.0207 95.9162 59.3665 95.8525 59.7093C95.8378 59.7958 95.8191 59.8831 95.8013 59.9744C95.7501 60.2395 95.694 60.5015 95.6388 60.7675C95.6164 60.8764 95.5892 60.9823 95.5669 61.0912C95.5014 61.3677 95.4351 61.6402 95.3617 61.9184C95.3436 61.989 95.3263 62.0635 95.3042 62.1349C95.2109 62.4757 95.1137 62.8174 95.0085 63.1608C94.981 63.2458 94.9535 63.3309 94.93 63.4151C94.8492 63.6782 94.7635 63.9383 94.6747 64.2031C94.6396 64.3107 94.6004 64.4191 94.5644 64.5226C94.4685 64.7932 94.3678 65.0606 94.2679 65.332C94.2379 65.4051 94.2126 65.4814 94.1825 65.5545C94.0509 65.8911 93.9113 66.2294 93.7677 66.5685C93.7314 66.6513 93.6942 66.7301 93.6579 66.8129C93.5435 67.075 93.4243 67.3339 93.3059 67.5968C93.2517 67.7126 93.1975 67.8284 93.1424 67.9402C93.0556 68.1172 92.9687 68.2942 92.8818 68.4711C92.8205 68.5926 92.7601 68.7181 92.6948 68.8405C92.6008 69.0231 92.5028 69.2067 92.4049 69.3902C92.3427 69.5077 92.2837 69.6204 92.2175 69.7388C92.1062 69.9377 91.9958 70.1406 91.8805 70.3403C91.826 70.4354 91.7723 70.5344 91.7138 70.6303C91.54 70.9259 91.3663 71.2216 91.1837 71.515C90.9715 71.8647 90.7458 72.2091 90.5208 72.5574C90.4583 72.6541 90.3919 72.7517 90.3294 72.8485C90.1434 73.126 89.9565 73.3994 89.7617 73.6746C89.7077 73.7529 89.6569 73.8263 89.5989 73.9054C89.3555 74.2453 89.1081 74.5859 88.8527 74.9283C88.7939 75.0034 88.7351 75.0786 88.6812 75.1568C88.4735 75.4306 88.2579 75.7061 88.0414 75.9776C87.9662 76.073 87.8909 76.1683 87.8156 76.2637C87.5426 76.6015 87.2656 76.9402 86.9798 77.2766L86.9719 77.2784C86.6838 77.6236 86.3901 77.9618 86.0875 78.2976C86.0034 78.3907 85.9162 78.4886 85.8321 78.5817C85.59 78.8504 85.34 79.1208 85.09 79.3912C85.0184 79.465 84.9516 79.5418 84.8808 79.6195C84.5655 79.954 84.2413 80.2862 83.9131 80.6193C83.681 80.8567 83.444 81.0909 83.203 81.3261C82.718 81.8012 82.2264 82.2652 81.7331 82.7213C81.6078 82.8358 81.4825 82.9502 81.3572 83.0647C80.8693 83.5071 80.3805 83.9455 79.8803 84.3697C79.8701 84.3803 79.8599 84.3908 79.8448 84.3982C79.3273 84.8387 78.8033 85.268 78.2735 85.6903C78.1741 85.77 78.0746 85.8497 77.9751 85.9295C77.4659 86.3307 76.9549 86.7239 76.4333 87.1069C76.3472 87.1713 76.2642 87.2308 76.1781 87.2951C75.6526 87.679 75.1214 88.0558 74.5876 88.4206C74.5624 88.4385 74.5371 88.4565 74.5118 88.4744C74.3046 88.6148 74.0917 88.7481 73.8836 88.8845C73.4684 89.1614 73.0491 89.439 72.6273 89.7048C72.3741 89.8634 72.1182 90.0101 71.8641 90.1648C71.4809 90.3972 71.0986 90.6336 70.7058 90.8598C70.317 91.0852 69.9176 91.3003 69.5222 91.5145C69.2797 91.6458 69.0429 91.7843 68.7996 91.9116C68.3138 92.1703 67.8206 92.4139 67.3273 92.6576C67.1696 92.7373 67.0166 92.8202 66.854 92.8969C66.1974 93.2132 65.531 93.5233 64.8612 93.8174C64.7319 93.8744 64.5968 93.9243 64.4675 93.9813C63.9262 94.2144 63.3809 94.4484 62.8322 94.6665C62.1223 94.9484 61.4099 95.2184 60.686 95.4742C60.5231 95.5301 60.3593 95.582 60.2004 95.6371C59.6346 95.8338 59.072 96.0258 58.4988 96.2075C57.8747 96.4043 57.2441 96.59 56.6126 96.7718C56.475 96.8097 56.3373 96.8477 56.2037 96.8848C55.5625 97.0603 54.9165 97.2326 54.2671 97.3891C54.1795 97.408 54.0919 97.4268 54.0052 97.4496C53.32 97.6138 52.633 97.77 51.9395 97.9151C51.2658 98.056 50.5967 98.1792 49.9348 98.2967C49.7826 98.3253 49.6296 98.3499 49.4767 98.3745C48.8258 98.4854 48.1763 98.5836 47.537 98.6712C47.4557 98.6804 47.3792 98.6927 47.3018 98.701C46.763 98.7712 46.2264 98.8325 45.6929 98.8891C45.4401 98.9143 45.1872 98.9396 44.9384 98.964C44.5053 99.0031 44.0793 99.0365 43.6516 99.0619C43.4178 99.0789 43.1801 99.0967 42.9446 99.1058C42.4586 99.1312 41.9788 99.1471 41.4982 99.1589C41.3321 99.1613 41.1677 99.1717 41.0016 99.1741C40.362 99.1827 39.7286 99.1816 39.1006 99.1668C38.9584 99.1641 38.8145 99.1534 38.6723 99.1507C38.1897 99.1338 37.7101 99.1121 37.2329 99.0815C37.013 99.0664 36.8003 99.0455 36.5844 99.0295C36.1814 98.9955 35.7823 98.9606 35.3895 98.916C35.1591 98.8906 34.9327 98.8644 34.7054 98.8342C34.3198 98.7839 33.9332 98.7296 33.5498 98.6706C33.3344 98.6378 33.1151 98.6058 32.8981 98.5651C32.4825 98.4921 32.0692 98.4103 31.6559 98.3285C31.4861 98.2942 31.3123 98.2608 31.1424 98.2266C30.5656 98.1008 29.9941 97.9614 29.4328 97.8115C29.3486 97.788 29.2635 97.7605 29.1802 97.7409C28.7023 97.6105 28.2257 97.4674 27.7563 97.3185C27.5686 97.2589 27.3839 97.1945 27.1953 97.131C26.8309 97.0054 26.4664 96.8797 26.1043 96.7452C25.9003 96.6684 25.6963 96.5915 25.4954 96.5097C25.15 96.3758 24.8069 96.2331 24.4669 96.0855C24.2692 95.999 24.0723 95.9164 23.8785 95.829C23.5192 95.6689 23.1652 95.4952 22.8113 95.3215C22.644 95.2408 22.4767 95.1602 22.3125 95.0748C21.7983 94.8147 21.2895 94.541 20.7902 94.2528C15.712 91.3473 12.1327 87.665 10.0542 83.214L27.1048 119.718C29.1834 124.169 32.7618 127.847 37.8408 130.757C38.3442 131.044 38.8521 131.314 39.3632 131.579C39.5273 131.664 39.6978 131.74 39.8619 131.826C40.2159 131.999 40.569 132.169 40.9292 132.333C41.123 132.421 41.3207 132.507 41.5176 132.59C41.8576 132.737 42.1999 132.876 42.5461 133.014C42.747 133.096 42.951 133.172 43.155 133.249C43.5171 133.384 43.8776 133.51 44.246 133.635C44.4346 133.699 44.6193 133.763 44.807 133.823C45.2764 133.971 45.7529 134.115 46.2309 134.245C46.3151 134.269 46.3961 134.297 46.4835 134.316C47.0496 134.469 47.6202 134.604 48.1931 134.731C48.3638 134.769 48.5367 134.798 48.7066 134.833C49.1168 134.919 49.5292 134.997 49.9488 135.069C50.165 135.106 50.3843 135.138 50.6004 135.175C50.9839 135.234 51.3664 135.289 51.7521 135.339C51.9794 135.369 52.2058 135.396 52.4362 135.421C52.833 135.465 53.2281 135.5 53.6311 135.534C53.847 135.551 54.0637 135.57 54.2836 135.586C54.7608 135.616 55.2404 135.638 55.723 135.655C55.8661 135.662 56.0091 135.668 56.1522 135.675C56.7802 135.69 57.4144 135.695 58.0531 135.682C58.2192 135.68 58.3845 135.673 58.5497 135.667C59.0303 135.655 59.5101 135.639 59.9961 135.614C60.2307 135.601 60.4685 135.583 60.7031 135.57C61.13 135.541 61.5568 135.511 61.9899 135.472C62.2436 135.451 62.4964 135.426 62.7484 135.396C62.9278 135.379 63.1041 135.366 63.2827 135.344C63.6368 135.305 63.9971 135.257 64.3534 135.209C64.4307 135.201 64.5121 135.192 64.5886 135.179C65.2278 135.092 65.8764 134.99 66.5282 134.883C66.6812 134.858 66.8333 134.829 66.9863 134.805C67.6483 134.687 68.3174 134.564 68.991 134.423C69.3532 134.345 69.7115 134.268 70.0738 134.19C70.4042 134.119 70.7281 134.037 71.0568 133.958C71.1443 133.939 71.2319 133.92 71.3186 133.897C71.9681 133.741 72.6141 133.568 73.2552 133.393C73.3928 133.355 73.5305 133.317 73.6681 133.279C74.2765 133.106 74.8842 132.93 75.4812 132.743C75.5051 132.738 75.5273 132.725 75.5552 132.719C76.1323 132.536 76.7029 132.343 77.2727 132.145C77.4277 132.091 77.5874 132.04 77.7464 131.985C78.4702 131.729 79.1867 131.458 79.8917 131.173C79.9037 131.17 79.9116 131.169 79.9227 131.162C80.4524 130.952 80.9746 130.727 81.4968 130.503C81.6381 130.443 81.7803 130.387 81.9207 130.324C82.5865 130.031 83.2458 129.726 83.8945 129.412L83.9104 129.408C84.0713 129.324 84.2322 129.239 84.3979 129.157C84.8872 128.915 85.3724 128.673 85.8551 128.419C86.0984 128.292 86.3352 128.153 86.5777 128.022C86.9501 127.817 87.3241 127.619 87.6908 127.407C87.713 127.394 87.7392 127.38 87.7605 127.363C88.1493 127.138 88.5316 126.901 88.9188 126.668C89.1729 126.513 89.4287 126.367 89.682 126.208C90.1038 125.942 90.519 125.666 90.9383 125.388C91.1392 125.257 91.341 125.13 91.5371 124.996C91.5482 124.99 91.5553 124.984 91.5664 124.978C91.5917 124.96 91.617 124.942 91.6423 124.924C92.1761 124.559 92.7073 124.182 93.2328 123.798C93.3189 123.734 93.4059 123.674 93.492 123.609C94.0095 123.227 94.5245 122.833 95.0338 122.432C95.1332 122.352 95.2327 122.272 95.3362 122.192C95.4712 122.084 95.607 121.979 95.742 121.871C96.1319 121.554 96.5201 121.229 96.9074 120.9C96.9177 120.889 96.9279 120.879 96.9429 120.871C97.4391 120.448 97.9319 120.009 98.4198 119.566C98.5451 119.452 98.6704 119.337 98.7957 119.223C99.289 118.767 99.7806 118.303 100.266 117.828C100.482 117.614 100.698 117.397 100.914 117.184C100.935 117.163 100.955 117.142 100.976 117.121C101.304 116.788 101.628 116.456 101.943 116.121C102.015 116.047 102.086 115.97 102.153 115.893C102.403 115.622 102.653 115.356 102.895 115.083C102.979 114.99 103.066 114.892 103.15 114.799C103.452 114.459 103.746 114.125 104.035 113.784L104.043 113.782C104.327 113.438 104.605 113.103 104.877 112.761C104.953 112.666 105.032 112.57 105.107 112.474C105.324 112.203 105.535 111.928 105.743 111.654C105.802 111.579 105.86 111.5 105.918 111.425C106.175 111.087 106.422 110.746 106.665 110.402C106.719 110.324 106.773 110.246 106.827 110.171C107.018 109.897 107.209 109.623 107.391 109.346C107.458 109.248 107.52 109.152 107.583 109.055C107.808 108.711 108.033 108.362 108.246 108.017C108.428 107.719 108.602 107.424 108.776 107.128C108.834 107.032 108.884 106.934 108.942 106.838C109.058 106.638 109.169 106.439 109.279 106.236C109.341 106.119 109.404 106.005 109.467 105.888C109.565 105.704 109.663 105.521 109.757 105.338C109.818 105.217 109.879 105.095 109.94 104.97C110.03 104.792 110.117 104.615 110.203 104.434C110.232 104.373 110.265 104.312 110.293 104.252C110.319 104.197 110.341 104.146 110.367 104.09C110.49 103.831 110.604 103.569 110.719 103.307C110.755 103.224 110.792 103.145 110.829 103.062C110.973 102.727 111.113 102.389 111.243 102.048C111.274 101.975 111.299 101.899 111.329 101.826C111.434 101.557 111.529 101.287 111.626 101.02C111.665 100.912 111.7 100.804 111.736 100.697C111.825 100.436 111.91 100.172 111.992 99.9127C112.019 99.8276 112.047 99.7426 112.074 99.6575C112.179 99.3141 112.278 98.9764 112.37 98.6317C112.388 98.5611 112.405 98.4866 112.427 98.4112C112.497 98.1378 112.567 97.8644 112.629 97.5888C112.655 97.479 112.677 97.37 112.701 97.2651C112.761 97.0022 112.812 96.7371 112.864 96.476C112.883 96.3887 112.901 96.3013 112.915 96.2109C112.978 95.8641 113.037 95.5182 113.088 95.1741C113.088 95.1573 113.094 95.1436 113.094 95.1269C113.104 95.058 113.111 94.99 113.121 94.9212C113.155 94.6763 113.186 94.4323 113.213 94.1891C113.226 94.0739 113.238 93.9587 113.25 93.8395C113.274 93.6219 113.294 93.4052 113.31 93.1893C113.322 93.0701 113.33 92.9518 113.337 92.8295C113.354 92.6008 113.365 92.3778 113.378 92.15C113.385 92.0445 113.391 91.939 113.393 91.8343C113.405 91.5027 113.414 91.1759 113.417 90.842C113.42 90.4874 113.415 90.1344 113.407 89.7863C113.405 89.6993 113.398 89.6131 113.396 89.5261C113.393 89.3936 113.386 89.2659 113.379 89.1342C113.361 88.8006 113.34 88.4719 113.312 88.1488C113.304 88.0339 113.292 87.9199 113.285 87.809C113.244 87.3847 113.195 86.9661 113.135 86.55C113.123 86.4775 113.113 86.409 113.101 86.3365C113.064 86.0863 113.023 85.8369 112.979 85.5923C112.956 85.4848 112.933 85.3813 112.911 85.2778C112.891 85.1863 112.872 85.0987 112.853 85.0071C112.768 84.613 112.684 84.2229 112.58 83.8371L112.575 83.8507Z" fill="url(#paint18_linear_7498_1234)"/>
<path d="M83.218 81.3181C74.5002 89.8717 64.0856 95.4 51.9672 97.9086C39.8418 100.423 29.4619 99.2042 20.8179 94.2463C12.1678 89.298 7.87026 82.1049 7.91923 72.6766C7.97035 63.1228 12.313 54.0782 20.9473 45.5426C29.5784 37.0118 40.0359 31.4702 52.3206 28.9216C64.6053 26.373 75.0267 27.5911 83.5902 32.5622C92.1536 37.5333 96.4154 44.7924 96.3642 54.3461C96.3153 63.7744 91.9319 72.7654 83.2172 81.3141L83.218 81.3181ZM35.1937 67.0263C35.1748 70.5958 36.8354 73.3374 40.1804 75.254C43.5214 77.1715 47.4858 77.651 52.0755 76.7005C56.6652 75.75 60.6386 73.6201 64.0094 70.3162C67.3794 67.0083 69.0748 63.5068 69.0919 59.8127C69.1089 56.1186 67.4503 53.3475 64.1062 51.4931C60.7622 49.6388 56.7958 49.1889 52.2101 50.1385C47.6244 51.0881 43.44 53.2634 40.1536 56.5533C36.8593 59.845 35.2116 63.3361 35.1906 67.0311" fill="url(#paint19_linear_7498_1234)"/>
<path d="M172.494 112.043C171.704 110.347 170.369 108.947 168.492 107.831C168.182 107.648 167.867 107.482 167.546 107.326C167.49 107.297 167.43 107.268 167.37 107.243C167.06 107.098 166.739 106.963 166.417 106.84C166.354 106.817 166.291 106.797 166.228 106.773C165.89 106.654 165.549 106.54 165.199 106.445C165.186 106.443 165.176 106.437 165.164 106.436C164.819 106.343 164.469 106.264 164.112 106.195C164.047 106.184 163.986 106.168 163.921 106.157C163.566 106.096 163.205 106.045 162.839 106.007C162.766 105.998 162.694 105.992 162.622 105.987C162.244 105.952 161.859 105.926 161.47 105.918C161.445 105.92 161.421 105.921 161.399 105.917C161.018 105.908 160.632 105.916 160.24 105.933C160.17 105.936 160.104 105.938 160.038 105.939C159.642 105.958 159.237 105.995 158.83 106.037C158.794 106.045 158.756 106.04 158.719 106.044C158.658 106.053 158.594 106.063 158.533 106.072C158.294 106.102 158.055 106.133 157.814 106.172C157.712 106.186 157.608 106.204 157.507 106.218C157.165 106.275 156.824 106.335 156.477 106.406C156.333 106.437 156.19 106.468 156.047 106.499C155.987 106.511 155.928 106.528 155.865 106.542C155.638 106.591 155.409 106.652 155.184 106.709C155.078 106.736 154.967 106.764 154.86 106.791C154.577 106.869 154.295 106.951 154.013 107.036C153.977 107.044 153.942 107.056 153.908 107.067L153.892 107.071C153.603 107.162 153.316 107.261 153.033 107.36C152.987 107.378 152.941 107.396 152.898 107.41C152.662 107.494 152.427 107.582 152.193 107.674C152.185 107.676 152.173 107.678 152.166 107.684C152.02 107.74 151.879 107.804 151.734 107.864C151.623 107.909 151.512 107.954 151.401 108.003C151.238 108.075 151.079 108.151 150.92 108.223C150.821 108.269 150.722 108.311 150.625 108.361L150.613 108.364C150.376 108.482 150.139 108.603 149.903 108.725C149.891 108.727 149.881 108.738 149.866 108.745C149.62 108.878 149.377 109.009 149.136 109.148L149.124 109.151C148.922 109.274 148.722 109.392 148.524 109.517C148.477 109.548 148.429 109.576 148.38 109.603C148.134 109.756 147.894 109.916 147.654 110.08L147.646 110.081C147.629 110.098 147.611 110.11 147.588 110.123C147.349 110.287 147.114 110.454 146.884 110.624C146.802 110.688 146.716 110.752 146.634 110.816C146.465 110.944 146.297 111.071 146.134 111.202C146.098 111.231 146.062 111.255 146.026 111.284C145.977 111.324 145.928 111.368 145.879 111.411C145.685 111.574 145.487 111.737 145.298 111.907C145.221 111.974 145.141 112.045 145.064 112.116C144.806 112.35 144.55 112.589 144.298 112.835C144.216 112.915 144.134 112.999 144.051 113.079C144.01 113.122 143.973 113.163 143.932 113.205C143.735 113.41 143.541 113.614 143.356 113.816C143.298 113.879 143.241 113.941 143.188 114.003C142.96 114.26 142.737 114.52 142.531 114.781C142.484 114.837 142.443 114.896 142.4 114.951C142.233 115.162 142.075 115.375 141.921 115.587C141.866 115.662 141.812 115.74 141.757 115.814C141.589 116.059 141.425 116.302 141.274 116.547C141.261 116.567 141.245 116.587 141.236 116.605C141.236 116.605 141.23 116.615 141.227 116.62C141.085 116.85 140.951 117.079 140.827 117.314C140.794 117.375 140.762 117.44 140.73 117.506C140.642 117.675 140.553 117.844 140.473 118.015C140.465 118.033 140.453 118.057 140.445 118.075C140.421 118.122 140.403 118.172 140.384 118.218C140.29 118.421 140.204 118.623 140.123 118.824C140.09 118.905 140.058 118.987 140.026 119.069C139.946 119.282 139.872 119.498 139.802 119.713C139.784 119.767 139.763 119.822 139.75 119.878C139.67 120.146 139.599 120.415 139.536 120.683C139.521 120.748 139.506 120.818 139.492 120.888C139.449 121.093 139.41 121.301 139.377 121.512C139.369 121.556 139.358 121.6 139.352 121.647C139.344 121.69 139.342 121.737 139.338 121.779C139.315 121.959 139.295 122.138 139.279 122.317C139.272 122.397 139.264 122.478 139.257 122.563C139.238 122.821 139.227 123.082 139.226 123.344C139.223 123.47 139.224 123.59 139.23 123.714C139.234 123.734 139.235 123.755 139.235 123.776C139.242 124.003 139.257 124.225 139.279 124.445C139.284 124.486 139.287 124.522 139.292 124.563C139.312 124.75 139.338 124.932 139.373 125.112C139.38 125.144 139.383 125.177 139.385 125.209C139.391 125.237 139.397 125.261 139.402 125.285C139.433 125.432 139.465 125.58 139.497 125.727C139.505 125.767 139.514 125.806 139.523 125.85C139.572 126.036 139.627 126.215 139.686 126.394C139.689 126.406 139.691 126.414 139.693 126.426C139.724 126.511 139.755 126.596 139.79 126.684C139.809 126.734 139.824 126.781 139.843 126.831C139.899 126.977 139.963 127.118 140.027 127.262L157.078 163.766C157.01 163.627 156.95 163.481 156.893 163.335C156.875 163.289 156.856 163.239 156.842 163.192C156.805 163.096 156.771 162.999 156.738 162.902C156.678 162.723 156.623 162.544 156.575 162.358C156.566 162.319 156.558 162.279 156.548 162.235C156.513 162.089 156.481 161.941 156.453 161.793C156.441 161.737 156.428 161.678 156.424 161.62C156.394 161.439 156.366 161.254 156.343 161.067C156.335 161.031 156.33 160.991 156.331 160.953C156.308 160.733 156.294 160.511 156.287 160.284C156.281 160.143 156.275 159.999 156.278 159.856C156.28 159.594 156.291 159.337 156.31 159.075C156.317 158.994 156.325 158.913 156.332 158.829C156.347 158.65 156.367 158.471 156.391 158.291C156.401 158.201 156.415 158.115 156.43 158.028C156.465 157.821 156.503 157.613 156.546 157.404C156.56 157.334 156.571 157.269 156.589 157.199C156.652 156.931 156.723 156.662 156.803 156.395C156.821 156.341 156.838 156.287 156.855 156.229C156.925 156.014 156.996 155.799 157.079 155.585C157.111 155.503 157.143 155.422 157.176 155.34C157.257 155.135 157.342 154.933 157.437 154.734C157.468 154.664 157.495 154.596 157.531 154.53C157.61 154.359 157.699 154.19 157.788 154.021C157.82 153.96 157.852 153.894 157.884 153.829C158.009 153.598 158.142 153.366 158.284 153.135C158.3 153.111 158.315 153.087 158.331 153.062C158.482 152.817 158.646 152.574 158.815 152.329C158.869 152.251 158.923 152.177 158.978 152.103C159.132 151.89 159.291 151.677 159.458 151.466C159.504 151.41 159.545 151.351 159.588 151.297C159.798 151.035 160.017 150.775 160.245 150.518C160.298 150.456 160.356 150.394 160.413 150.332C160.598 150.125 160.791 149.921 160.99 149.72C161.112 149.594 161.232 149.472 161.355 149.346C161.606 149.1 161.863 148.862 162.12 148.627C162.197 148.556 162.278 148.489 162.355 148.418C162.547 148.248 162.741 148.085 162.935 147.923C163.02 147.854 163.105 147.782 163.19 147.714C163.354 147.583 163.522 147.455 163.69 147.327C163.776 147.263 163.858 147.199 163.944 147.135C164.178 146.964 164.412 146.793 164.652 146.628C164.67 146.616 164.691 146.599 164.71 146.587C164.949 146.423 165.194 146.266 165.44 146.109C165.491 146.077 165.543 146.049 165.591 146.018C165.786 145.897 165.984 145.775 166.185 145.661C166.429 145.521 166.675 145.385 166.925 145.252C166.933 145.25 166.945 145.244 166.952 145.238C167.191 145.111 167.435 144.988 167.684 144.868C167.783 144.822 167.881 144.775 167.979 144.729C168.138 144.653 168.297 144.578 168.461 144.509C168.567 144.461 168.678 144.416 168.789 144.372C168.942 144.305 169.098 144.238 169.255 144.175C169.486 144.084 169.721 143.996 169.957 143.912C170.003 143.894 170.049 143.876 170.096 143.861C170.378 143.759 170.666 143.664 170.954 143.572C170.998 143.563 171.036 143.546 171.08 143.537C171.357 143.452 171.64 143.371 171.927 143.292C172.034 143.265 172.144 143.237 172.251 143.21C172.476 143.153 172.701 143.096 172.927 143.044C173.13 143 173.332 142.948 173.539 142.908C173.886 142.833 174.232 142.775 174.569 142.719C174.674 142.701 174.775 142.687 174.88 142.673C175.122 142.638 175.361 142.603 175.6 142.572C175.697 142.56 175.798 142.546 175.896 142.538C176.303 142.492 176.708 142.459 177.104 142.44C177.174 142.438 177.241 142.436 177.307 142.434C177.699 142.416 178.085 142.412 178.466 142.418C178.49 142.417 178.515 142.416 178.541 142.418C178.931 142.43 179.314 142.452 179.693 142.487C179.765 142.492 179.837 142.502 179.909 142.507C180.276 142.545 180.637 142.596 180.991 142.657C181.056 142.668 181.118 142.684 181.183 142.695C181.539 142.764 181.889 142.843 182.234 142.935C182.247 142.937 182.257 142.943 182.269 142.944C182.619 143.04 182.96 143.154 183.298 143.273C183.362 143.297 183.424 143.316 183.488 143.34C183.81 143.463 184.13 143.594 184.441 143.743C184.501 143.772 184.557 143.801 184.617 143.826C184.938 143.982 185.257 144.147 185.563 144.331C187.439 145.443 188.77 146.847 189.564 148.543L172.514 112.039L172.494 112.043Z" fill="url(#paint20_linear_7498_1234)"/>
<path d="M79.8336 167.343L96.8803 203.848L68.6297 209.704L51.5781 173.196L79.8336 167.343Z" fill="url(#paint21_linear_7498_1234)"/>
<path d="M127.488 16.2116L155.987 10.3062L79.8384 167.344L51.583 173.197L127.488 16.2116Z" fill="url(#paint22_linear_7498_1234)"/>
<path d="M155.984 10.3053L173.034 46.8095L96.8821 203.848L79.8354 167.343L155.984 10.3053Z" fill="url(#paint23_linear_7498_1234)"/>
<path d="M216.832 140.123C216.822 140.075 216.804 140.029 216.794 139.982C216.697 139.628 216.592 139.279 216.485 138.936C216.46 138.858 216.436 138.784 216.411 138.706C216.391 138.652 216.38 138.6 216.36 138.546C216.281 138.317 216.192 138.095 216.11 137.871C216.061 137.74 216.016 137.608 215.963 137.478C215.807 137.082 215.64 136.693 215.462 136.311L198.411 99.807C198.589 100.189 198.756 100.578 198.912 100.974C198.965 101.104 199.01 101.236 199.06 101.367C199.165 101.644 199.266 101.918 199.36 102.202C199.385 102.28 199.409 102.354 199.434 102.432C199.547 102.778 199.651 103.127 199.743 103.477C199.753 103.525 199.771 103.571 199.782 103.619C199.881 104.002 199.974 104.394 200.054 104.789C200.074 104.881 200.093 104.968 200.113 105.06C200.184 105.411 200.244 105.765 200.299 106.119C200.311 106.192 200.325 106.259 200.333 106.333C200.393 106.749 200.441 107.167 200.483 107.592C200.495 107.706 200.503 107.821 200.51 107.932C200.539 108.259 200.56 108.587 200.577 108.921C200.585 109.053 200.591 109.18 200.595 109.313C200.609 109.747 200.621 110.186 200.62 110.628C200.616 110.958 200.608 111.289 200.596 111.62C200.594 111.725 200.587 111.83 200.58 111.932C200.57 112.159 200.557 112.387 200.539 112.615C200.532 112.734 200.52 112.853 200.512 112.971C200.493 113.192 200.473 113.409 200.45 113.63C200.437 113.745 200.428 113.86 200.411 113.972C200.381 114.22 200.347 114.469 200.313 114.718C200.301 114.795 200.293 114.876 200.281 114.954C200.231 115.302 200.172 115.648 200.105 115.995C200.087 116.087 200.068 116.174 200.054 116.26C200.002 116.526 199.947 116.792 199.887 117.054C199.864 117.159 199.842 117.268 199.814 117.374C199.747 117.659 199.679 117.945 199.602 118.228C199.587 118.294 199.572 118.355 199.553 118.422C199.46 118.767 199.363 119.108 199.258 119.452C199.231 119.541 199.2 119.631 199.174 119.72C199.093 119.983 199.007 120.243 198.918 120.504C198.883 120.611 198.847 120.715 198.807 120.823C198.706 121.107 198.604 121.388 198.494 121.67C198.47 121.733 198.446 121.796 198.422 121.856C198.287 122.197 198.147 122.536 198.004 122.875C197.964 122.962 197.925 123.05 197.889 123.137C197.774 123.395 197.659 123.653 197.54 123.912C197.488 124.023 197.433 124.135 197.382 124.246C197.293 124.431 197.203 124.613 197.11 124.8C197.052 124.917 196.991 125.038 196.932 125.155C196.833 125.351 196.729 125.544 196.625 125.741C196.57 125.849 196.513 125.953 196.457 126.061C196.325 126.302 196.186 126.544 196.051 126.786C196.017 126.843 195.984 126.904 195.951 126.961C195.778 127.261 195.596 127.558 195.415 127.86C195.384 127.908 195.354 127.96 195.322 128.009C195.134 128.316 194.938 128.621 194.737 128.926C194.674 129.023 194.608 129.121 194.541 129.218C194.337 129.525 194.128 129.832 193.911 130.141C193.879 130.185 193.851 130.229 193.819 130.273C193.573 130.622 193.318 130.964 193.059 131.312C192.991 131.401 192.92 131.496 192.852 131.585C192.64 131.86 192.429 132.139 192.21 132.415C192.144 132.496 192.079 132.581 192.014 132.666C191.738 133.008 191.458 133.352 191.169 133.693C191.112 133.759 191.052 133.83 190.992 133.898C190.748 134.179 190.506 134.465 190.254 134.744C190.169 134.837 190.086 134.934 189.998 135.028C189.696 135.364 189.392 135.696 189.077 136.03C189.067 136.041 189.06 136.05 189.049 136.057C188.727 136.397 188.396 136.739 188.065 137.077C187.867 137.278 187.668 137.479 187.466 137.681C186.982 138.16 186.487 138.629 185.995 139.089C185.863 139.213 185.727 139.334 185.595 139.458C185.167 139.85 184.734 140.235 184.295 140.617C184.218 140.683 184.141 140.754 184.064 140.821C183.551 141.26 183.034 141.688 182.509 142.109C182.413 142.188 182.317 142.263 182.217 142.339C181.697 142.75 181.176 143.154 180.644 143.548C180.597 143.583 180.551 143.618 180.5 143.654C179.983 144.036 179.463 144.406 178.937 144.769C178.864 144.818 178.792 144.871 178.719 144.92C178.425 145.121 178.124 145.311 177.829 145.507C177.49 145.73 177.156 145.956 176.814 146.171C176.521 146.355 176.222 146.532 175.927 146.712C175.584 146.919 175.246 147.13 174.902 147.329C174.542 147.535 174.177 147.735 173.816 147.933C173.548 148.083 173.281 148.236 173.007 148.378C172.622 148.582 172.227 148.779 171.837 148.976C171.581 149.106 171.327 149.24 171.067 149.366C170.656 149.567 170.238 149.753 169.821 149.947C169.575 150.058 169.33 150.178 169.083 150.289C168.569 150.516 168.049 150.732 167.525 150.945C167.367 151.008 167.216 151.078 167.059 151.141C166.924 151.195 166.789 151.241 166.654 151.295C166.078 151.519 165.505 151.742 164.92 151.947C164.661 152.041 164.396 152.123 164.136 152.212C163.67 152.371 163.209 152.532 162.737 152.68C162.121 152.875 161.498 153.059 160.871 153.24C160.737 153.277 160.6 153.315 160.466 153.352C159.825 153.527 159.179 153.7 158.525 153.857C158.446 153.874 158.366 153.891 158.287 153.913C157.598 154.078 156.907 154.235 156.21 154.381C155.528 154.523 154.851 154.648 154.181 154.767C154.021 154.798 153.864 154.823 153.703 154.849C153.04 154.963 152.383 155.063 151.732 155.153C151.667 155.163 151.606 155.168 151.541 155.177C150.974 155.253 150.413 155.316 149.855 155.374C149.667 155.393 149.484 155.412 149.3 155.427C148.863 155.466 148.429 155.506 147.999 155.536C147.809 155.547 147.621 155.563 147.432 155.574C147.012 155.598 146.593 155.622 146.175 155.637C145.985 155.644 145.79 155.649 145.6 155.656C145.194 155.665 144.787 155.673 144.387 155.672C144.192 155.672 143.996 155.673 143.803 155.668C143.411 155.665 143.017 155.654 142.627 155.642C142.43 155.635 142.233 155.627 142.039 155.619C141.66 155.601 141.281 155.578 140.903 155.547C140.704 155.532 140.505 155.516 140.306 155.501C139.937 155.468 139.574 155.429 139.211 155.386C139.01 155.363 138.809 155.34 138.608 155.316C138.253 155.272 137.9 155.219 137.551 155.165C137.349 155.133 137.146 155.102 136.948 155.07C136.602 155.011 136.263 154.946 135.923 154.878C135.719 154.839 135.515 154.799 135.314 154.755C134.982 154.685 134.653 154.606 134.323 154.527C134.121 154.479 133.915 154.431 133.716 154.378C133.394 154.293 133.075 154.204 132.755 154.11C132.555 154.053 132.352 153.997 132.151 153.936C131.834 153.838 131.524 153.734 131.21 153.631C131.013 153.565 130.812 153.5 130.617 153.429C130.306 153.317 130.001 153.199 129.693 153.083C129.502 153.007 129.308 152.94 129.116 152.861C128.806 152.736 128.497 152.598 128.194 152.464C128.014 152.386 127.831 152.309 127.651 152.227C127.318 152.073 126.991 151.91 126.669 151.747C126.519 151.671 126.367 151.603 126.217 151.527C125.744 151.283 125.277 151.03 124.817 150.767C122.607 149.501 120.683 148.087 119.042 146.52C118.57 146.072 118.126 145.613 117.704 145.142C116.223 143.49 115.028 141.69 114.116 139.737L131.167 176.241C132.859 179.867 135.532 182.974 139.184 185.562C139.464 185.76 139.752 185.956 140.044 186.151C140.627 186.538 141.236 186.911 141.867 187.271C149.108 191.419 157.624 192.938 167.415 191.826C167.806 191.784 168.199 191.733 168.595 191.677C168.655 191.668 168.721 191.662 168.781 191.653C169.433 191.563 170.093 191.458 170.753 191.35C170.91 191.324 171.07 191.294 171.227 191.268C171.897 191.149 172.574 191.024 173.255 190.882C173.614 190.805 173.972 190.727 174.326 190.651C174.665 190.578 175.001 190.494 175.337 190.413C175.417 190.396 175.496 190.378 175.571 190.358C176.224 190.197 176.871 190.028 177.512 189.853C177.645 189.816 177.779 189.779 177.913 189.742C178.505 189.572 179.097 189.399 179.682 189.215C179.718 189.207 179.748 189.192 179.783 189.181C180.251 189.034 180.712 188.872 181.178 188.714C181.442 188.624 181.707 188.542 181.966 188.448C182.546 188.24 183.116 188.022 183.684 187.8C183.818 187.746 183.958 187.699 184.093 187.645L184.108 187.642C184.258 187.58 184.402 187.516 184.547 187.455C185.075 187.238 185.607 187.019 186.129 186.79C186.376 186.683 186.617 186.564 186.86 186.454C187.254 186.273 187.65 186.096 188.038 185.908C188.064 185.894 188.086 185.881 188.113 185.871C188.374 185.745 188.628 185.611 188.883 185.481C189.274 185.284 189.666 185.092 190.05 184.884C190.323 184.738 190.59 184.584 190.861 184.434C191.178 184.262 191.496 184.094 191.807 183.914C191.856 183.887 191.899 183.857 191.948 183.83C192.296 183.63 192.634 183.42 192.981 183.212C193.275 183.032 193.572 182.86 193.865 182.676C194.21 182.46 194.545 182.234 194.884 182.011C195.136 181.844 195.393 181.684 195.64 181.515C195.683 181.485 195.727 181.454 195.77 181.424C195.843 181.375 195.915 181.322 195.987 181.273C196.513 180.91 197.033 180.54 197.547 180.159C197.594 180.124 197.64 180.089 197.691 180.053C198.219 179.66 198.744 179.255 199.263 178.844C199.36 178.769 199.459 178.689 199.555 178.614C199.648 178.54 199.737 178.471 199.829 178.397C200.258 178.046 200.685 177.688 201.111 177.326C201.188 177.259 201.264 177.188 201.342 177.122C201.781 176.744 202.21 176.356 202.642 175.963C202.774 175.843 202.91 175.718 203.041 175.594C203.538 175.133 204.029 174.669 204.514 174.19C204.675 174.03 204.836 173.87 204.997 173.707C205.038 173.664 205.076 173.627 205.113 173.586C205.448 173.247 205.778 172.905 206.101 172.565C206.107 172.555 206.114 172.55 206.12 172.54C206.436 172.206 206.742 171.869 207.046 171.537C207.13 171.444 207.217 171.346 207.301 171.253C207.553 170.97 207.8 170.687 208.039 170.407C208.096 170.34 208.156 170.269 208.212 170.203C208.501 169.862 208.781 169.518 209.057 169.175C209.123 169.095 209.188 169.01 209.253 168.925C209.473 168.649 209.689 168.373 209.895 168.095C209.964 168.006 210.035 167.911 210.103 167.821C210.361 167.474 210.617 167.132 210.863 166.783C210.895 166.739 210.923 166.695 210.955 166.651C211.172 166.342 211.38 166.035 211.585 165.728C211.652 165.63 211.714 165.534 211.78 165.436C211.981 165.13 212.178 164.826 212.366 164.519C212.391 164.48 212.416 164.441 212.437 164.403C212.443 164.394 212.449 164.38 212.459 164.369C212.641 164.072 212.822 163.771 212.994 163.471C213.028 163.414 213.061 163.357 213.094 163.296C213.234 163.053 213.369 162.812 213.5 162.571C213.557 162.467 213.613 162.359 213.669 162.251C213.772 162.054 213.877 161.861 213.976 161.665C214.038 161.547 214.095 161.426 214.157 161.305C214.247 161.123 214.34 160.936 214.426 160.755C214.451 160.7 214.481 160.644 214.507 160.588C214.532 160.533 214.557 160.473 214.582 160.418C214.702 160.159 214.818 159.905 214.929 159.647C214.968 159.56 215.007 159.468 215.046 159.381C215.19 159.041 215.33 158.703 215.464 158.362C215.488 158.298 215.512 158.235 215.536 158.171C215.642 157.89 215.748 157.609 215.846 157.33C215.881 157.222 215.921 157.118 215.956 157.01C216.046 156.75 216.132 156.489 216.213 156.23C216.24 156.141 216.271 156.051 216.297 155.962C216.403 155.619 216.5 155.277 216.592 154.933C216.611 154.866 216.626 154.8 216.641 154.735C216.714 154.452 216.786 154.17 216.85 153.886C216.876 153.776 216.9 153.671 216.922 153.562C216.982 153.299 217.033 153.034 217.084 152.769C217.102 152.678 217.121 152.59 217.139 152.499C217.202 152.152 217.26 151.806 217.314 151.457C217.316 151.444 217.32 151.427 217.322 151.414C217.333 151.349 217.339 151.281 217.346 151.217C217.38 150.968 217.415 150.723 217.441 150.476C217.453 150.361 217.466 150.246 217.479 150.131C217.503 149.913 217.522 149.692 217.541 149.472C217.553 149.352 217.561 149.234 217.568 149.112C217.585 148.883 217.595 148.656 217.608 148.428C217.614 148.323 217.621 148.217 217.623 148.113C217.635 147.781 217.643 147.45 217.647 147.12C217.65 146.766 217.645 146.413 217.637 146.065C217.634 145.978 217.628 145.891 217.622 145.805C217.619 145.673 217.612 145.545 217.605 145.413C217.587 145.08 217.566 144.751 217.537 144.424C217.529 144.309 217.521 144.194 217.51 144.084C217.469 143.66 217.42 143.241 217.36 142.825C217.348 142.753 217.338 142.684 217.326 142.612C217.289 142.362 217.248 142.112 217.203 141.864C217.181 141.76 217.158 141.657 217.135 141.549C217.115 141.458 217.097 141.37 217.077 141.278C216.992 140.884 216.908 140.494 216.804 140.108L216.832 140.123Z" fill="url(#paint24_linear_7498_1234)"/>
<path d="M187.858 88.8383C196.422 93.8134 200.679 101.069 200.629 110.627C200.58 120.055 196.198 129.075 187.485 137.686C178.765 146.307 168.348 151.865 156.227 154.378C143.945 156.922 133.478 155.722 124.834 150.768C116.187 145.815 111.889 138.56 111.936 129.007C111.986 119.449 116.367 110.405 125.084 101.847C133.798 93.2983 144.3 87.7472 156.581 85.2034C168.863 82.6597 179.29 83.8681 187.858 88.8383ZM168.276 126.78C171.642 123.473 173.341 119.971 173.362 116.276C173.383 112.581 171.758 109.769 168.496 107.835C165.228 105.906 161.227 105.43 156.477 106.411C151.727 107.391 147.667 109.544 144.296 112.848C140.922 116.157 139.227 119.658 139.21 123.352C139.193 127.047 140.897 129.683 144.323 131.645C147.748 133.606 151.752 134.115 156.338 133.165C160.924 132.216 164.901 130.085 168.276 126.78Z" fill="url(#paint25_linear_7498_1234)"/>
</mask>
<g mask="url(#mask0_7498_1234)">
<g style="mix-blend-mode:overlay">
<rect x="-5" y="-34" width="287" height="282" fill="#8875FF" fill-opacity="0.2"/>
</g>
</g>
<defs>
<linearGradient id="paint0_linear_7498_1234" x1="53.8421" y1="49.7879" x2="65.2495" y2="93.2445" gradientUnits="userSpaceOnUse">
<stop stop-color="#B50B52"/>
<stop offset="1" stop-color="#5F1433"/>
</linearGradient>
<linearGradient id="paint1_linear_7498_1234" x1="39.5605" y1="66.0857" x2="51.8842" y2="97.4552" gradientUnits="userSpaceOnUse">
<stop stop-color="#B50B52"/>
<stop offset="1" stop-color="#5F1433"/>
</linearGradient>
<linearGradient id="paint2_linear_7498_1234" x1="39.5179" y1="66.4734" x2="52.2871" y2="98.6983" gradientUnits="userSpaceOnUse">
<stop stop-color="#B50B52"/>
<stop offset="1" stop-color="#5F1433"/>
</linearGradient>
<linearGradient id="paint3_linear_7498_1234" x1="39.7864" y1="67.9747" x2="52.5052" y2="99.9829" gradientUnits="userSpaceOnUse">
<stop stop-color="#B50B52"/>
<stop offset="1" stop-color="#5F1433"/>
</linearGradient>
<linearGradient id="paint4_linear_7498_1234" x1="40.1501" y1="69.1865" x2="52.6539" y2="100.95" gradientUnits="userSpaceOnUse">
<stop stop-color="#B50B52"/>
<stop offset="1" stop-color="#5F1433"/>
</linearGradient>
<linearGradient id="paint5_linear_7498_1234" x1="125.391" y1="52.1248" x2="74.7069" y2="136.311" gradientUnits="userSpaceOnUse">
<stop stop-color="#A6114F"/>
<stop offset="0.442584" stop-color="#FF68A7"/>
<stop offset="0.984965" stop-color="#A6114F"/>
</linearGradient>
<linearGradient id="paint6_linear_7498_1234" x1="86.2551" y1="37.4554" x2="64.2842" y2="98.1332" gradientUnits="userSpaceOnUse">
<stop stop-color="#FF70AB"/>
<stop offset="0.548095" stop-color="#FFCAE0"/>
<stop offset="1" stop-color="#FF70AB"/>
</linearGradient>
<linearGradient id="paint7_linear_7498_1234" x1="157.852" y1="106.11" x2="170.267" y2="152.849" gradientUnits="userSpaceOnUse">
<stop stop-color="#B50B52"/>
<stop offset="1" stop-color="#5F1433"/>
</linearGradient>
<linearGradient id="paint8_linear_7498_1234" x1="70.0732" y1="169.215" x2="84.1944" y2="235.159" gradientUnits="userSpaceOnUse">
<stop stop-color="#B50B52"/>
<stop offset="1" stop-color="#B50B52" stop-opacity="0"/>
</linearGradient>
<linearGradient id="paint9_linear_7498_1234" x1="120.001" y1="17.7685" x2="109.504" y2="154.199" gradientUnits="userSpaceOnUse">
<stop stop-color="#FF559C"/>
<stop offset="0.548095" stop-color="#FFCAE0"/>
<stop offset="1" stop-color="#FF559C"/>
</linearGradient>
<linearGradient id="paint10_linear_7498_1234" x1="134.063" y1="14.9536" x2="99.5391" y2="178.66" gradientUnits="userSpaceOnUse">
<stop stop-color="#DD1266" stop-opacity="0.95"/>
<stop offset="0.567703" stop-color="#FF8ABB"/>
<stop offset="1" stop-color="#DD1266" stop-opacity="0.95"/>
</linearGradient>
<linearGradient id="paint11_linear_7498_1234" x1="229.668" y1="108.423" x2="178.868" y2="192.793" gradientUnits="userSpaceOnUse">
<stop stop-color="#A6114F"/>
<stop offset="0.442584" stop-color="#FF68A7"/>
<stop offset="0.984965" stop-color="#A6114F"/>
</linearGradient>
<linearGradient id="paint12_linear_7498_1234" x1="190.509" y1="93.7816" x2="168.483" y2="154.63" gradientUnits="userSpaceOnUse">
<stop stop-color="#FF70AB"/>
<stop offset="0.548095" stop-color="#FFCAE0"/>
<stop offset="1" stop-color="#FF70AB"/>
</linearGradient>
<linearGradient id="paint13_linear_7498_1234" x1="53.8421" y1="49.7879" x2="65.2495" y2="93.2445" gradientUnits="userSpaceOnUse">
<stop stop-color="#B50B52"/>
<stop offset="1" stop-color="#5F1433"/>
</linearGradient>
<linearGradient id="paint14_linear_7498_1234" x1="39.5605" y1="66.0857" x2="51.8842" y2="97.4552" gradientUnits="userSpaceOnUse">
<stop stop-color="#B50B52"/>
<stop offset="1" stop-color="#5F1433"/>
</linearGradient>
<linearGradient id="paint15_linear_7498_1234" x1="39.5179" y1="66.4734" x2="52.2871" y2="98.6983" gradientUnits="userSpaceOnUse">
<stop stop-color="#B50B52"/>
<stop offset="1" stop-color="#5F1433"/>
</linearGradient>
<linearGradient id="paint16_linear_7498_1234" x1="39.7864" y1="67.9747" x2="52.5052" y2="99.9829" gradientUnits="userSpaceOnUse">
<stop stop-color="#B50B52"/>
<stop offset="1" stop-color="#5F1433"/>
</linearGradient>
<linearGradient id="paint17_linear_7498_1234" x1="40.1501" y1="69.1865" x2="52.6539" y2="100.95" gradientUnits="userSpaceOnUse">
<stop stop-color="#B50B52"/>
<stop offset="1" stop-color="#5F1433"/>
</linearGradient>
<linearGradient id="paint18_linear_7498_1234" x1="125.391" y1="52.1248" x2="74.7069" y2="136.311" gradientUnits="userSpaceOnUse">
<stop stop-color="#A6114F"/>
<stop offset="0.442584" stop-color="#FF68A7"/>
<stop offset="0.984965" stop-color="#A6114F"/>
</linearGradient>
<linearGradient id="paint19_linear_7498_1234" x1="86.2551" y1="37.4554" x2="64.2842" y2="98.1332" gradientUnits="userSpaceOnUse">
<stop stop-color="#FF70AB"/>
<stop offset="0.548095" stop-color="#FFCAE0"/>
<stop offset="1" stop-color="#FF70AB"/>
</linearGradient>
<linearGradient id="paint20_linear_7498_1234" x1="157.852" y1="106.11" x2="170.267" y2="152.849" gradientUnits="userSpaceOnUse">
<stop stop-color="#B50B52"/>
<stop offset="1" stop-color="#5F1433"/>
</linearGradient>
<linearGradient id="paint21_linear_7498_1234" x1="70.0732" y1="169.215" x2="84.1944" y2="235.159" gradientUnits="userSpaceOnUse">
<stop stop-color="#B50B52"/>
<stop offset="1" stop-color="#B50B52" stop-opacity="0"/>
</linearGradient>
<linearGradient id="paint22_linear_7498_1234" x1="120.001" y1="17.7685" x2="109.504" y2="154.199" gradientUnits="userSpaceOnUse">
<stop stop-color="#FF559C"/>
<stop offset="0.548095" stop-color="#FFCAE0"/>
<stop offset="1" stop-color="#FF559C"/>
</linearGradient>
<linearGradient id="paint23_linear_7498_1234" x1="134.063" y1="14.9536" x2="99.5391" y2="178.66" gradientUnits="userSpaceOnUse">
<stop stop-color="#DD1266" stop-opacity="0.95"/>
<stop offset="0.567703" stop-color="#FF8ABB"/>
<stop offset="1" stop-color="#DD1266" stop-opacity="0.95"/>
</linearGradient>
<linearGradient id="paint24_linear_7498_1234" x1="229.668" y1="108.423" x2="178.868" y2="192.793" gradientUnits="userSpaceOnUse">
<stop stop-color="#A6114F"/>
<stop offset="0.442584" stop-color="#FF68A7"/>
<stop offset="0.984965" stop-color="#A6114F"/>
</linearGradient>
<linearGradient id="paint25_linear_7498_1234" x1="190.509" y1="93.7816" x2="168.483" y2="154.63" gradientUnits="userSpaceOnUse">
<stop stop-color="#FF70AB"/>
<stop offset="0.548095" stop-color="#FFCAE0"/>
<stop offset="1" stop-color="#FF70AB"/>
</linearGradient>
</defs>
</svg>
