<svg width="40" height="20" viewBox="0 0 40 20" fill="none" xmlns="http://www.w3.org/2000/svg">
<g clip-path="url(#clip0_8436_71)">
<path d="M18.1678 14.8412H15.3325L17.1059 4.19287H19.941L18.1678 14.8412Z" fill="white"/>
<path d="M28.4429 4.45334C27.8837 4.23789 26.9967 4 25.8999 4C23.1001 4 21.1284 5.4499 21.1163 7.52283C21.093 9.05223 22.528 9.9017 23.6011 10.4116C24.6981 10.9327 25.0709 11.2729 25.0709 11.7373C25.0598 12.4507 24.1846 12.7795 23.3683 12.7795C22.2363 12.7795 21.6298 12.61 20.7081 12.2131L20.3347 12.043L19.938 14.4333C20.603 14.7275 21.8281 14.9886 23.1001 15C26.075 15 28.0118 13.5725 28.0347 11.3635C28.046 10.1513 27.2883 9.22252 25.6548 8.46354C24.6632 7.97632 24.0559 7.6478 24.0559 7.14929C24.0675 6.6961 24.5695 6.23192 25.6889 6.23192C26.6107 6.20918 27.2879 6.42434 27.8009 6.63964L28.0573 6.75271L28.4429 4.45334Z" fill="white"/>
<path d="M32.2147 11.0689C32.4482 10.4571 33.3467 8.08955 33.3467 8.08955C33.3349 8.11228 33.5797 7.46652 33.7197 7.0701L33.9179 7.98762C33.9179 7.98762 34.4548 10.5365 34.5714 11.0689C34.1282 11.0689 32.7747 11.0689 32.2147 11.0689ZM35.7145 4.19287H33.5214C32.8451 4.19287 32.3313 4.38529 32.0395 5.07636L27.8281 14.841H30.8031C30.8031 14.841 31.2928 13.5268 31.3981 13.2437C31.7245 13.2437 34.6185 13.2437 35.0383 13.2437C35.1197 13.6176 35.3766 14.841 35.3766 14.841H38.0018L35.7145 4.19287Z" fill="white"/>
<path d="M12.9638 4.19287L10.1872 11.454L9.88378 9.98135C9.37044 8.28211 7.76049 6.43593 5.96387 5.51796L8.50717 14.8299H11.5054L15.9619 4.19287H12.9638Z" fill="white"/>
<path d="M7.6083 4.19287H3.04667L3 4.40802C6.55836 5.29167 8.91499 7.42166 9.88322 9.9818L8.89158 5.08796C8.72832 4.40787 8.22661 4.2153 7.6083 4.19287Z" fill="white"/>
</g>
<defs>
<clipPath id="clip0_8436_71">
<rect width="35" height="11" fill="white" transform="translate(3 4)"/>
</clipPath>
</defs>
</svg>
